<svg xmlns="http://www.w3.org/2000/svg" width="1848" height="951" viewBox="0 0 1848 951" version="1.1">
	<path d="M 1466.357 43.250 C 1460.215 48.627, 1448.110 63.756, 1439.754 76.500 C 1425.178 98.729, 1413.889 125.763, 1408.442 151.477 C 1404.652 169.373, 1405.198 173.931, 1411.445 176.541 C 1415.382 178.187, 1421.438 176.919, 1422.926 174.138 C 1423.449 173.162, 1425.050 166.544, 1426.485 159.431 C 1433.061 126.837, 1447.891 95.511, 1468.505 70.673 C 1474.095 63.937, 1474.199 63.870, 1476.241 65.673 C 1479.820 68.832, 1492.859 86.871, 1498.533 96.513 C 1525.619 142.535, 1533.006 198.814, 1518.925 251.875 C 1512.719 275.262, 1501.560 298.839, 1487.710 317.826 C 1483.969 322.955, 1483.754 323.088, 1481.912 321.421 C 1480.861 320.469, 1480 318.576, 1480 317.215 C 1480 312.420, 1474.817 291.713, 1470.360 278.700 C 1459.926 248.239, 1443.174 220.385, 1421.165 196.904 C 1399.048 173.308, 1365.954 151.747, 1334.500 140.442 C 1313.781 132.995, 1286.690 128, 1267.021 128 C 1257.543 128, 1257.062 128.106, 1255.073 130.635 C 1253.181 133.040, 1253 134.605, 1253 148.568 C 1253 167.764, 1255.940 184.790, 1262.885 205.822 C 1268.522 222.892, 1274.444 235.970, 1283.226 250.744 C 1291.632 264.885, 1293.680 267, 1298.967 267 C 1304.284 267, 1306.415 265.826, 1307.987 262.032 C 1309.718 257.851, 1308.717 253.954, 1304.182 247.224 C 1286.829 221.471, 1274.570 187.586, 1271.449 156.744 C 1270.497 147.330, 1271.239 146.600, 1280.856 147.501 C 1292.295 148.573, 1309.700 152.473, 1323.244 156.998 C 1390.178 179.363, 1442.846 237.814, 1458.576 307.190 C 1462.943 326.448, 1462.280 327.169, 1448.641 318.007 C 1421.433 299.732, 1389.980 287.631, 1355.964 282.353 C 1340.025 279.880, 1305.986 279.895, 1290 282.382 C 1259.779 287.085, 1232.315 296.850, 1207.155 311.839 C 1187.559 323.514, 1165.847 341.518, 1164.452 347.250 C 1163.193 352.424, 1164.898 355.298, 1175.301 365.541 C 1202.644 392.462, 1247.087 413.136, 1291.550 419.617 C 1308.021 422.018, 1338.300 422.003, 1354.500 419.586 C 1370.804 417.153, 1390.646 411.980, 1404.593 406.527 C 1418.362 401.143, 1435.604 392.463, 1438.750 389.331 C 1441.022 387.069, 1441.622 382.924, 1440.359 378.210 C 1439.677 375.664, 1435.317 373, 1431.833 373 C 1430.586 373, 1423.476 376.099, 1416.033 379.888 C 1383.977 396.202, 1358.454 402.370, 1323 402.370 C 1300.564 402.370, 1291.276 401.224, 1271.086 395.965 C 1243.259 388.715, 1211.804 372.410, 1193.558 355.777 L 1187.616 350.360 1194.558 344.590 C 1254.844 294.475, 1342.429 284.668, 1413.327 320.093 C 1433.867 330.356, 1447.335 340.022, 1467.383 358.890 C 1490.607 380.746, 1511.256 394.181, 1539.240 405.643 C 1568.023 417.431, 1592.056 422.081, 1624.500 422.140 C 1675.938 422.233, 1720.852 407.460, 1761.415 377.108 C 1782.946 360.997, 1788.017 355.166, 1786.421 348.351 C 1785.524 344.517, 1778.584 337.444, 1766.500 328.046 C 1739.939 307.390, 1713.948 294.376, 1683.590 286.531 C 1656.995 279.658, 1650.536 279.816, 1648.032 287.403 C 1646.721 291.377, 1647.897 296.840, 1650.537 299.031 C 1651.326 299.685, 1657.260 301.295, 1663.725 302.608 C 1700.306 310.037, 1729.384 324.049, 1758.392 348.228 L 1761.285 350.639 1753.892 356.676 C 1706.681 395.235, 1643.011 410.816, 1583.268 398.432 C 1554.991 392.571, 1528.386 381.135, 1506.154 365.286 C 1500.988 361.603, 1500.059 360.537, 1501.154 359.549 C 1501.894 358.881, 1508.712 357.135, 1516.304 355.670 C 1566.842 345.916, 1615.061 317.291, 1646.303 278.500 C 1677.755 239.446, 1694.550 196.202, 1697.585 146.451 C 1698.147 137.241, 1697.986 134.874, 1696.619 132.231 C 1694.003 127.171, 1692.082 126.661, 1678.062 127.306 C 1646.223 128.771, 1614.549 137.257, 1586.522 151.831 C 1571.637 159.572, 1557.542 168.812, 1555.597 172.105 C 1553.245 176.087, 1553.605 180.377, 1556.589 183.923 C 1558.722 186.459, 1559.910 186.997, 1563.339 186.984 C 1566.774 186.971, 1569.244 185.818, 1577.500 180.377 C 1590.094 172.076, 1610.361 162.178, 1624 157.668 C 1645.308 150.621, 1675.506 145.548, 1676.755 148.805 C 1677.419 150.535, 1675.478 166.771, 1673.409 176.787 C 1657.138 255.560, 1592.423 320.362, 1513.785 336.625 C 1503.191 338.816, 1501.516 338.945, 1500.238 337.666 C 1498.959 336.388, 1499.276 335.545, 1502.798 330.854 C 1523.737 302.964, 1539.735 260.558, 1543.945 221.789 C 1550.300 163.273, 1531.408 100.552, 1493.857 55.500 C 1482.985 42.456, 1479.917 40, 1474.500 40 C 1470.930 40, 1469.349 40.631, 1466.357 43.250 M 710.849 316.496 C 673.860 323.519, 643.630 350.778, 630.109 389.301 C 624.658 404.832, 622.892 415.546, 622.289 436.731 L 621.742 455.962 600.229 456.231 C 581.005 456.471, 578.599 456.686, 577.613 458.250 C 576.809 459.526, 576.809 460.474, 577.613 461.750 C 578.599 463.314, 581.011 463.529, 600.358 463.770 L 622 464.039 621.990 577.770 C 621.981 681.688, 621.041 741.794, 619.204 755.911 L 618.500 761.321 605.626 764.641 C 540.473 781.439, 496.897 811.779, 488.994 845.847 C 486.948 854.668, 488.095 865.720, 491.849 873.344 C 495.904 881.581, 504.688 889.925, 512.715 893.165 C 518.024 895.308, 519.900 895.493, 535.500 895.419 C 550.551 895.348, 553.628 895.037, 562.337 892.705 C 622.708 876.541, 660.120 813.817, 667.969 715.605 C 668.599 707.726, 669 656.280, 669 583.355 L 669 464 679.919 464 C 688.480 464, 691.502 463.622, 693.913 462.250 C 695.604 461.288, 696.987 460.275, 696.987 460 C 696.987 459.725, 695.604 458.712, 693.913 457.750 C 691.496 456.375, 688.474 456, 679.800 456 L 668.762 456 669.287 427.250 C 669.858 396.080, 670.544 390.893, 676.144 375.416 C 683.179 355.974, 695.629 341.341, 712.213 333.022 C 726.731 325.739, 741.730 324.246, 753.902 328.871 C 760.424 331.349, 762.590 333.227, 764.059 337.680 C 765.753 342.811, 763.838 346.301, 756.429 351.588 C 744.341 360.213, 741.015 366.308, 743.097 376.015 C 745.254 386.075, 754.581 393.250, 765.500 393.250 C 773.024 393.250, 778.353 390.742, 783.429 384.811 C 788.457 378.937, 790.343 371.910, 789.792 361.098 C 789.248 350.417, 786.845 345.312, 777.728 335.479 C 765.509 322.298, 750.882 316.089, 730.500 315.431 C 722.625 315.176, 715.870 315.543, 710.849 316.496 M 289 330.703 C 257.415 333.189, 222.592 346.127, 206.412 361.389 C 204.355 363.329, 202.367 364.727, 201.994 364.496 C 201.021 363.895, 181.750 374.771, 171.093 381.938 C 154.361 393.188, 137.335 408.744, 128.904 420.484 C 127.032 423.091, 125.493 425.511, 125.485 425.862 C 125.476 426.213, 125.112 427.063, 124.676 427.750 C 124.239 428.438, 124.145 429, 124.467 429 C 124.788 429, 124.341 430.373, 123.473 432.052 C 121.807 435.274, 121.656 435.416, 140 416.582 C 148.462 407.894, 159.902 399.693, 174.246 392.032 L 183.991 386.826 180.006 395.163 C 169.154 417.864, 167.193 448.828, 175.110 472.500 C 182.319 494.060, 197.169 512.231, 220 527.432 C 246.603 545.144, 258.893 550.836, 320.500 573.980 C 372.595 593.551, 390.935 601.781, 408.472 613.455 C 423.034 623.150, 436.082 637.195, 439.932 647.320 C 440.493 648.798, 441.938 652.142, 443.141 654.753 C 444.806 658.366, 445.437 662.015, 445.784 670.027 C 447.559 711.117, 418.719 742.794, 367.513 755.997 C 345.635 761.638, 325.031 763.167, 301.106 760.926 C 291.609 760.036, 289.479 760.093, 288.306 761.265 C 287.097 762.474, 287.100 762.839, 288.328 763.857 C 292.643 767.439, 335.261 767.841, 357 764.505 C 410.090 756.359, 448.275 732.809, 464.950 697.928 C 471.939 683.311, 473.379 676.144, 473.379 656 C 473.379 641.023, 473.061 637.346, 471.169 630.500 C 468.338 620.256, 462.398 608.358, 455.743 599.601 C 452.859 595.806, 449.961 591.744, 449.303 590.575 C 446.386 585.394, 427.852 570.783, 412.848 561.835 C 392.791 549.875, 373.340 541.295, 322.500 521.982 C 283.087 507.009, 276.625 504.337, 259.326 495.850 C 213.343 473.292, 193.979 448.435, 196.488 415.186 C 199.502 375.233, 224.843 349.922, 271.801 339.963 C 285.941 336.965, 310.916 336.268, 326.394 338.440 C 356.685 342.691, 381.938 352.615, 393 364.616 C 398.160 370.214, 400.237 375.017, 400.347 381.606 C 400.435 386.896, 400.508 386.717, 390.156 406.563 C 382.720 420.818, 383.400 430.503, 392.476 439.596 C 404.086 451.229, 423.224 452.717, 434.426 442.856 C 448.240 430.696, 448.017 405.015, 433.909 383.361 C 428.893 375.661, 416.838 364.017, 407.500 357.852 C 377.238 337.871, 331.395 327.368, 289 330.703 M 514.707 363.016 C 513.298 364.124, 511.627 366.601, 510.994 368.519 C 508.832 375.069, 510.237 377.447, 525.311 392.746 C 533.035 400.586, 539.688 407, 540.095 407 C 541.088 407, 563.515 384.045, 566.578 379.894 C 571.059 373.820, 569.074 364.267, 562.881 362.108 C 558.059 360.427, 556.421 360.698, 547.765 364.606 L 539.779 368.212 532.095 364.606 C 523.347 360.500, 518.472 360.055, 514.707 363.016 M 855.660 451.048 C 837.971 454.017, 819.240 463.477, 805.063 476.602 L 799 482.215 799 470.230 C 799 461.835, 798.626 457.950, 797.750 457.259 C 797.010 456.675, 780.704 456.013, 757.820 455.636 L 719.139 455 715.612 457.250 C 713.672 458.487, 712.085 459.725, 712.085 460 C 712.085 460.275, 713.753 461.568, 715.792 462.873 C 719.383 465.170, 719.999 465.231, 735.250 464.793 L 751 464.341 751 608.671 L 751 753 730.155 753 C 711.231 753, 709.157 753.169, 707.655 754.829 C 705.549 757.156, 705.570 758.301, 707.756 760.279 C 709.339 761.712, 715.984 761.801, 775.398 761.184 C 835.742 760.558, 841.374 760.358, 842.350 758.809 C 843.167 757.512, 842.980 756.636, 841.553 755.059 C 839.789 753.109, 838.613 753, 819.345 753 L 799 753 799 622.115 L 799 491.229 805.488 485.160 C 817.177 474.226, 829.980 466.726, 843.701 462.775 C 854.239 459.741, 879.671 459.538, 890.500 462.401 C 906.819 466.716, 917.967 473.794, 924.605 484.056 C 933.750 498.193, 936.331 509.327, 936.299 534.500 C 936.268 559.378, 934.085 575.215, 922.864 632 C 915.219 670.686, 913.078 685.037, 912.347 702.500 C 911.339 726.561, 914.950 739.854, 925.497 750.912 C 934.669 760.527, 944.732 764, 963.426 764 C 982.510 764, 995.879 758.195, 1010.549 743.540 C 1020.044 734.055, 1023.494 728.542, 1020.928 726.956 C 1019.928 726.338, 1017.260 728.319, 1011.422 734.018 C 1000.956 744.234, 993.497 747.998, 983.718 747.999 C 972.979 748, 967.577 745.059, 963.516 737 C 960.151 730.321, 959 723.314, 959 709.502 C 959 690.753, 960.602 679.680, 971.038 626.271 C 979.010 585.479, 981.042 571.374, 981.669 552.500 C 982.286 533.940, 980.785 522.188, 976.111 508.981 L 973.186 500.715 976.713 495.608 C 980.481 490.150, 987.934 482, 989.155 482 C 989.562 482, 992.955 479.675, 996.697 476.832 C 1014.228 463.516, 1037.111 457.360, 1059.500 459.935 C 1091.848 463.657, 1108.445 476.755, 1116.230 504.704 C 1118.160 511.636, 1118.402 514.994, 1118.414 535 C 1118.430 561.794, 1117.151 571.841, 1107.441 621.209 C 1097.270 672.920, 1095.885 682.190, 1095.279 702.619 C 1094.844 717.268, 1095.056 722.151, 1096.387 728.119 C 1101.812 752.440, 1117.518 763.943, 1145.356 763.985 C 1163.221 764.012, 1177.234 758.269, 1191.079 745.243 C 1195.436 741.145, 1199 737.371, 1199 736.856 C 1199 736.340, 1199.961 734.620, 1201.135 733.032 C 1202.382 731.345, 1203.005 729.455, 1202.633 728.485 C 1202.118 727.144, 1200.703 728.015, 1195.248 733.025 C 1182.534 744.704, 1175.785 748.149, 1165.500 748.209 C 1159.315 748.245, 1153.061 746.269, 1149.680 743.212 C 1141.163 735.510, 1138.685 712.471, 1143.039 681.459 C 1144.190 673.262, 1148.258 650.569, 1152.078 631.030 C 1160.685 587.010, 1162.871 572.469, 1163.656 554 C 1164.649 530.638, 1162.077 516.082, 1154.012 499.423 C 1143.862 478.458, 1125.450 463.937, 1099.635 456.539 C 1079.621 450.803, 1046.792 449.158, 1030.940 453.097 C 1020.675 455.648, 1006.012 462.389, 997.473 468.482 C 993.994 470.965, 986.522 477.946, 980.867 483.998 C 975.213 490.049, 970.302 495, 969.954 495 C 969.606 495, 968.858 493.988, 968.293 492.750 C 967.728 491.512, 965.130 487.881, 962.520 484.679 C 949.999 469.320, 930.199 458.174, 907.296 453.590 C 891.326 450.394, 866.761 449.184, 855.660 451.048 M 1339.500 458.612 C 1278.590 466.297, 1228.857 500.856, 1202.475 553.831 C 1180.083 598.795, 1178.304 654.289, 1197.931 695.593 C 1215.780 733.154, 1247.608 756.872, 1287 761.968 C 1342.065 769.091, 1380.175 743.634, 1394.383 690.236 L 1396.707 681.500 1397.282 699.500 C 1397.920 719.493, 1399.195 726.317, 1404.237 736.724 C 1408.158 744.816, 1417.945 755.575, 1424.691 759.208 C 1433.740 764.082, 1448.597 765.220, 1454.429 761.486 C 1456.005 760.477, 1465.084 760.024, 1492.403 759.594 C 1512.150 759.282, 1528.518 758.816, 1528.777 758.557 C 1529.035 758.298, 1528.981 757.392, 1528.655 756.543 C 1528.173 755.286, 1526.093 755, 1517.454 755 C 1507.063 755, 1506.786 754.940, 1503.923 752.077 C 1502.315 750.469, 1501.010 748.332, 1501.022 747.327 C 1501.073 743.049, 1506.426 735.025, 1535.686 695.365 C 1552.674 672.339, 1570.787 647.763, 1575.939 640.750 C 1581.090 633.737, 1585.590 628, 1585.937 628 C 1586.839 628, 1586.556 627.484, 1621.915 693.793 C 1639.597 726.954, 1653.799 754.517, 1653.473 755.043 C 1653.131 755.598, 1644.923 756, 1633.941 756 C 1617.771 756, 1615 756.219, 1615 757.500 C 1615 758.818, 1623.056 759, 1681.500 759 C 1739.944 759, 1748 758.818, 1748 757.500 C 1748 756.217, 1745.125 756, 1728.122 756 C 1713.434 756, 1707.977 755.674, 1707.219 754.750 C 1706.463 753.829, 1623.923 602.970, 1616.140 588.283 C 1615.075 586.274, 1615.654 585.289, 1622.316 577.783 C 1626.360 573.227, 1644.629 549.250, 1662.916 524.500 C 1681.202 499.750, 1698.039 477.748, 1700.332 475.607 C 1705.722 470.571, 1717.169 465.122, 1724.071 464.306 C 1727.057 463.953, 1730.792 462.879, 1732.370 461.920 L 1735.240 460.176 1732.170 458.588 C 1727.630 456.240, 1683.370 456.240, 1678.830 458.588 L 1675.760 460.176 1678.904 462.088 C 1680.633 463.140, 1683.183 464, 1684.570 464 C 1687.264 464, 1692 468.006, 1692 470.285 C 1692 473.663, 1685.415 483.322, 1654.246 525.662 C 1635.961 550.501, 1621 571.159, 1621 571.568 C 1621 571.977, 1619.954 573.704, 1618.676 575.406 C 1617.398 577.108, 1616.048 579.325, 1615.676 580.333 C 1614.040 584.762, 1616.145 588.327, 1570.190 503.286 C 1558.536 481.719, 1549 463.606, 1549 463.036 C 1549 462.353, 1556.353 462, 1570.573 462 C 1590.582 462, 1592.122 461.873, 1591.808 460.250 C 1591.489 458.604, 1587.495 458.502, 1524.484 458.527 C 1458.480 458.553, 1457.500 458.583, 1457.500 460.527 C 1457.500 462.417, 1458.350 462.511, 1477.637 462.770 L 1497.775 463.041 1502.759 471.770 C 1508.382 481.619, 1582.668 620.917, 1583.174 622.561 C 1583.353 623.145, 1577.212 632.145, 1569.527 642.561 C 1561.842 652.977, 1544.283 676.800, 1530.508 695.500 C 1493.955 745.121, 1497.431 741.183, 1481 751.594 C 1477.646 753.719, 1471 755.736, 1471 754.628 C 1471 754.336, 1474.336 750.761, 1478.414 746.683 C 1484.894 740.203, 1490 732.434, 1490 729.055 C 1490 727.026, 1488.619 728.068, 1479.094 737.275 C 1469.247 746.795, 1464.849 749.267, 1459.563 748.257 C 1455.936 747.563, 1451.702 742.064, 1449.541 735.240 C 1444.725 720.029, 1444.738 720.390, 1444.300 586.516 C 1443.927 472.854, 1443.731 460.360, 1442.288 458.766 C 1440.803 457.124, 1437.514 457.008, 1395.595 457.112 C 1363.691 457.191, 1347.282 457.630, 1339.500 458.612 M 485 459.953 L 485 462.213 501.285 461.495 C 515.003 460.889, 517.761 461.008, 518.788 462.245 C 519.737 463.387, 519.951 496.056, 519.753 609.607 L 519.500 755.500 497.250 755.769 C 477.408 756.009, 475 756.216, 475 757.678 C 475 759.163, 476.841 759.255, 494.661 758.658 C 505.474 758.296, 535.062 757.897, 560.411 757.771 C 585.760 757.646, 597.085 757.411, 585.577 757.251 C 572.234 757.064, 564.174 756.559, 563.327 755.857 C 562.235 754.950, 562 728.558, 562 606.878 L 562 459 535.657 459 C 521.168 459, 503.843 458.706, 497.157 458.346 C 485.007 457.693, 485 457.694, 485 459.953 M 1379 465.047 C 1348.252 466.492, 1326.525 473.291, 1303 488.830 C 1279.446 504.388, 1258.937 533.569, 1247.870 567.274 C 1231.416 617.383, 1233.943 677.633, 1254.157 717.167 C 1268.861 745.924, 1287.054 756.916, 1315.174 754.030 C 1327.664 752.748, 1335.503 750.752, 1344.500 746.562 C 1359.107 739.760, 1368.202 730.563, 1377.017 713.683 C 1385.123 698.163, 1390.779 676.280, 1394.125 647.500 C 1395.500 635.671, 1396.630 463.910, 1395.331 464.159 C 1394.874 464.247, 1387.525 464.646, 1379 465.047 M 107.652 479.087 C 105.580 482.045, 105.568 483.938, 107.601 486.841 C 109.845 490.044, 112.706 490.906, 126.452 492.515 C 141.660 494.295, 155.556 497.889, 166.710 502.927 C 171.499 505.090, 175.774 506.639, 176.211 506.369 C 179.128 504.567, 166.309 494.386, 152.500 487.539 C 141.288 481.980, 128.248 478.184, 117.527 477.360 C 109.675 476.757, 109.229 476.835, 107.652 479.087 M 110.003 505.495 C 105.152 512.063, 102.427 513.999, 97.014 514.725 C 94.779 515.025, 92.741 515.610, 92.484 516.026 C 91.820 517.100, 99.192 523.547, 103.735 525.865 C 114.414 531.313, 130.605 532.883, 141.327 529.511 C 150.981 526.474, 151.250 523.668, 142 522.481 C 129.351 520.858, 113 515.131, 113 512.324 C 113 511.552, 113.900 509.156, 115 507 C 119.370 498.433, 115.976 497.411, 110.003 505.495 M 78.974 538.228 C 71.987 542.481, 60.441 550.324, 58.265 552.295 C 55.405 554.886, 54.405 560.150, 56.028 564.068 C 57.293 567.122, 65.759 574.299, 71.700 577.354 C 75.568 579.343, 76 579.376, 76 577.679 C 76 576.953, 73.079 574.018, 69.508 571.157 C 57.852 561.816, 57.558 558.817, 67.665 552.351 C 70.805 550.343, 74.469 547.529, 75.807 546.100 C 79.578 542.070, 83.323 536.990, 82.863 536.530 C 82.635 536.301, 80.884 537.066, 78.974 538.228 M 82.302 647.238 C 81.054 648.872, 76.987 667.559, 76.994 671.625 C 77.005 677.610, 78.275 681.031, 82.099 685.375 C 84.216 687.780, 87.552 690.508, 89.512 691.439 C 93.689 693.421, 116.729 695.588, 148.500 696.987 C 170.080 697.937, 177.457 699.178, 185.457 703.206 C 199.533 710.292, 208.979 725.734, 209.015 741.718 C 209.043 754.009, 213.217 753.826, 214.539 741.476 C 215.388 733.552, 213.256 722.439, 209.361 714.484 C 205.732 707.074, 196.698 698.155, 188.363 693.755 L 181.802 690.292 188.651 687.570 C 200.747 682.762, 219 670.039, 219 666.415 C 219 664.243, 217.270 664.691, 211.034 668.479 C 199.237 675.645, 183.845 680.918, 168.857 682.926 C 156.555 684.574, 126.642 685.217, 111.500 684.157 C 96.525 683.110, 89.132 680.984, 87.070 677.131 C 86.462 675.995, 86 669.327, 86 661.688 C 86 651.538, 85.665 647.967, 84.633 647.110 C 83.604 646.257, 83.026 646.288, 82.302 647.238 M 597.182 777.068 C 551.586 790.593, 520.167 808.750, 506.935 829.221 C 500.620 838.993, 498.661 845.166, 498.575 855.568 C 498.507 863.758, 498.791 865.205, 501.510 870.525 C 507.085 881.430, 516.243 886, 532.522 886 C 553.600 886, 572.883 876.873, 584.674 861.315 C 597.651 844.193, 606.476 820.593, 611.944 788.389 C 614.444 773.663, 614.458 772.985, 612.250 773.059 C 611.288 773.091, 604.507 774.895, 597.182 777.068 M 722.250 810.706 L 720 811.139 720 845.570 L 720 880 732.316 880 C 746.614 880, 754.602 878.747, 760.960 875.508 C 766.312 872.780, 768.892 868.834, 769.614 862.270 C 770.424 854.892, 767.147 849.412, 759.606 845.532 C 756.365 843.864, 753.719 842.050, 753.726 841.500 C 753.734 840.950, 755.771 839.454, 758.253 838.175 C 764.300 835.060, 766.446 830.996, 765.769 823.945 C 765.336 819.444, 764.733 818.141, 762.044 815.896 C 757.056 811.731, 749.113 809.979, 735.934 810.136 C 729.645 810.211, 723.487 810.467, 722.250 810.706 M 1172.250 810.706 L 1170 811.139 1170 845.070 L 1170 879 1173.500 879 L 1177 879 1177 865.700 C 1177 857.387, 1177.411 851.989, 1178.096 851.304 C 1178.760 850.640, 1181.427 850.400, 1184.846 850.695 C 1192.124 851.323, 1203.911 848.828, 1209.701 845.435 C 1215.030 842.312, 1217.945 836.811, 1217.978 829.815 C 1218.044 815.713, 1208.598 809.874, 1186.145 810.136 C 1179.740 810.211, 1173.487 810.467, 1172.250 810.706 M 1306.250 810.706 L 1304 811.139 1304 845.070 L 1304 879 1307.500 879 L 1311 879 1311 864.700 C 1311 854.911, 1311.379 850.021, 1312.200 849.200 C 1313.664 847.736, 1324.121 847.628, 1329.152 849.025 C 1335.383 850.756, 1339.461 856.426, 1343.126 868.455 L 1346.339 879 1350.277 879 C 1353.629 879, 1354.109 878.740, 1353.508 877.250 C 1353.119 876.288, 1351.682 871.691, 1350.314 867.035 C 1347.073 856.005, 1345.253 852.632, 1341 849.773 C 1339.075 848.479, 1337.552 846.988, 1337.615 846.460 C 1337.679 845.932, 1339.836 844.416, 1342.410 843.092 C 1348.744 839.832, 1351.313 835.976, 1351.754 829.065 C 1352.637 815.249, 1343.810 809.907, 1320.500 810.148 C 1313.900 810.216, 1307.487 810.467, 1306.250 810.706 M 1447 811.374 C 1430.943 815.794, 1422.554 826.289, 1421.322 843.500 C 1420.460 855.545, 1425.698 867.887, 1434.005 873.384 C 1441.470 878.325, 1449.442 880.272, 1460 879.734 C 1475.236 878.957, 1484.917 874.116, 1490.588 864.440 C 1496.087 855.057, 1497.364 843.560, 1494.079 833.008 C 1490.522 821.578, 1483.773 815.011, 1472.068 811.588 C 1465.685 809.722, 1453.384 809.616, 1447 811.374 M 1599.250 810.706 L 1597 811.139 1597 845.070 L 1597 879 1600.500 879 L 1604 879 1604 864.700 C 1604 854.911, 1604.379 850.021, 1605.200 849.200 C 1606.664 847.736, 1617.121 847.628, 1622.152 849.025 C 1628.383 850.756, 1632.461 856.426, 1636.126 868.455 L 1639.339 879 1643.277 879 C 1646.629 879, 1647.109 878.740, 1646.508 877.250 C 1646.119 876.288, 1644.682 871.691, 1643.314 867.035 C 1640.073 856.005, 1638.253 852.632, 1634 849.773 C 1632.075 848.479, 1630.552 846.988, 1630.615 846.460 C 1630.679 845.932, 1632.836 844.416, 1635.410 843.092 C 1641.744 839.832, 1644.313 835.976, 1644.754 829.065 C 1645.637 815.249, 1636.810 809.907, 1613.500 810.148 C 1606.900 810.216, 1600.487 810.467, 1599.250 810.706 M 789 845 L 789 879 811 879 C 832.333 879, 833 878.939, 833 877 C 833 875.077, 832.333 875, 815.700 875 C 803.578 875, 798.041 874.641, 797.200 873.800 C 796.394 872.994, 796 868.467, 796 860 C 796 851.533, 796.394 847.006, 797.200 846.200 C 798.029 845.371, 803.133 845, 813.700 845 C 828.333 845, 829 844.913, 829 843 C 829 841.087, 828.333 841, 813.700 841 C 803.133 841, 798.029 840.629, 797.200 839.800 C 796.418 839.018, 796 834.911, 796 828 C 796 821.089, 796.418 816.982, 797.200 816.200 C 798.035 815.365, 803.356 815, 814.700 815 C 830.333 815, 831 814.918, 831 813 C 831 811.063, 830.333 811, 810 811 L 789 811 789 845 M 870.954 813.621 C 870.406 815.063, 864.342 830.125, 857.479 847.092 C 850.615 864.060, 845 878.180, 845 878.471 C 845 878.762, 846.700 879, 848.778 879 L 852.555 879 855.896 869.984 C 861.257 855.517, 860.513 856, 877.450 856 C 889.337 856, 891.987 856.271, 893.128 857.603 C 893.882 858.485, 896.303 863.547, 898.507 868.853 L 902.515 878.500 906.710 878.805 L 910.906 879.110 897.203 845.074 L 883.500 811.037 877.725 811.019 C 872.407 811.001, 871.872 811.207, 870.954 813.621 M 925 835.462 C 925 857.673, 925.189 860.429, 927.049 865.402 C 930.779 875.371, 939.232 880, 953.706 880 C 967.780 880, 977.132 874.608, 981.002 864.264 C 982.795 859.473, 983 856.467, 983 834.962 L 983 811 979.564 811 L 976.129 811 975.814 835.281 C 975.506 859.060, 975.447 859.665, 972.945 864.522 C 971.400 867.522, 968.699 870.671, 966.109 872.491 C 962.233 875.215, 961.088 875.500, 954 875.500 C 946.912 875.500, 945.767 875.215, 941.891 872.491 C 939.301 870.671, 936.600 867.522, 935.055 864.522 C 932.553 859.665, 932.494 859.060, 932.186 835.281 L 931.871 811 928.436 811 L 925 811 925 835.462 M 997 813 C 997 814.887, 997.667 815, 1008.800 815 C 1016.644 815, 1021.002 815.402, 1021.800 816.200 C 1022.681 817.081, 1023 825.578, 1023 848.200 L 1023 879 1026.500 879 L 1030 879 1030 848.200 C 1030 825.578, 1030.319 817.081, 1031.200 816.200 C 1031.998 815.402, 1036.356 815, 1044.200 815 C 1055.333 815, 1056 814.887, 1056 813 C 1056 811.045, 1055.333 811, 1026.500 811 C 997.667 811, 997 811.045, 997 813 M 1067.643 812.250 C 1068.062 812.938, 1073.939 821.956, 1080.702 832.291 L 1093 851.083 1093 865.041 L 1093 879 1096.500 879 L 1100 879 1100.017 864.750 L 1100.033 850.500 1112.595 832.500 C 1128.902 809.135, 1128.020 811, 1122.758 811 L 1118.446 811 1109.024 826.750 C 1103.842 835.413, 1098.981 843.175, 1098.221 844 C 1096.473 845.898, 1096.597 846.063, 1084.920 826.250 L 1075.932 811 1071.407 811 C 1068.048 811, 1067.078 811.322, 1067.643 812.250 M 1245.954 813.621 C 1245.406 815.063, 1239.342 830.125, 1232.479 847.092 C 1225.615 864.060, 1220 878.180, 1220 878.471 C 1220 878.762, 1221.700 879, 1223.778 879 L 1227.555 879 1230.896 869.984 C 1236.257 855.517, 1235.513 856, 1252.450 856 C 1264.337 856, 1266.987 856.271, 1268.128 857.603 C 1268.882 858.485, 1271.303 863.547, 1273.507 868.853 L 1277.515 878.500 1281.710 878.805 L 1285.906 879.110 1272.203 845.074 L 1258.500 811.037 1252.725 811.019 C 1247.407 811.001, 1246.872 811.207, 1245.954 813.621 M 1372 845 L 1372 879 1394 879 C 1415.333 879, 1416 878.939, 1416 877 C 1416 875.077, 1415.333 875, 1398.700 875 C 1386.578 875, 1381.041 874.641, 1380.200 873.800 C 1379.319 872.919, 1379 864.422, 1379 841.800 L 1379 811 1375.500 811 L 1372 811 1372 845 M 1515 835.462 C 1515 857.673, 1515.189 860.429, 1517.049 865.402 C 1520.779 875.371, 1529.232 880, 1543.706 880 C 1557.780 880, 1567.132 874.608, 1571.002 864.264 C 1572.795 859.473, 1573 856.467, 1573 834.962 L 1573 811 1569.564 811 L 1566.129 811 1565.814 835.281 C 1565.506 859.060, 1565.447 859.665, 1562.945 864.522 C 1561.400 867.522, 1558.699 870.671, 1556.109 872.491 C 1552.233 875.215, 1551.088 875.500, 1544 875.500 C 1536.912 875.500, 1535.767 875.215, 1531.891 872.491 C 1529.301 870.671, 1526.600 867.522, 1525.055 864.522 C 1522.553 859.665, 1522.494 859.060, 1522.186 835.281 L 1521.871 811 1518.436 811 L 1515 811 1515 835.462 M 730.250 815.597 C 729.355 816.005, 729 819.445, 729 827.703 L 729 839.239 738.287 838.832 C 745.614 838.512, 748.322 837.964, 751.115 836.238 C 759.163 831.264, 758.978 821.626, 750.752 817.372 C 747.625 815.755, 732.731 814.465, 730.250 815.597 M 1182.223 815.676 L 1178.946 816.131 1179.223 830.315 L 1179.500 844.500 1188.500 844.491 C 1195.749 844.484, 1198.180 844.085, 1200.997 842.437 C 1211.435 836.331, 1211.724 822.911, 1201.522 818.036 C 1197.348 816.042, 1187.909 814.887, 1182.223 815.676 M 1315.250 815.706 C 1313.049 816.130, 1313 816.432, 1313 829.686 L 1313 843.233 1322.770 842.840 C 1330.807 842.517, 1333.205 842.036, 1336.294 840.127 C 1346.435 833.860, 1344.846 820.691, 1333.477 816.794 C 1328.836 815.203, 1320.458 814.703, 1315.250 815.706 M 1608.250 815.706 C 1606.049 816.130, 1606 816.432, 1606 829.686 L 1606 843.233 1615.770 842.840 C 1623.807 842.517, 1626.205 842.036, 1629.294 840.127 C 1639.435 833.860, 1637.846 820.691, 1626.477 816.794 C 1621.836 815.203, 1613.458 814.703, 1608.250 815.706 M 1447 818.081 C 1441.136 820.735, 1437.424 824.336, 1434.194 830.500 C 1431.914 834.852, 1431.569 836.732, 1431.537 845 C 1431.504 853.402, 1431.807 855.078, 1434.157 859.500 C 1439.444 869.451, 1447.017 873.942, 1458.571 873.978 C 1464.331 873.996, 1466.646 873.490, 1471.064 871.250 C 1481.111 866.155, 1486.705 855.056, 1485.770 842.075 C 1484.619 826.114, 1474.070 816.044, 1458.500 816.044 C 1453.597 816.044, 1450.152 816.654, 1447 818.081 M 876.667 818.667 C 876.300 819.033, 876 819.980, 876 820.770 C 876 821.560, 873.525 828.493, 870.500 836.177 C 867.475 843.861, 865 850.339, 865 850.574 C 865 850.808, 870.625 851, 877.500 851 C 884.375 851, 890 850.796, 890 850.547 C 890 850.298, 888.030 845.236, 885.622 839.297 C 883.214 833.359, 880.477 826.138, 879.541 823.250 C 877.737 817.685, 877.703 817.630, 876.667 818.667 M 1251.667 818.667 C 1251.300 819.033, 1251 819.980, 1251 820.770 C 1251 821.560, 1248.525 828.493, 1245.500 836.177 C 1242.475 843.861, 1240 850.339, 1240 850.574 C 1240 850.808, 1245.625 851, 1252.500 851 C 1259.375 851, 1265 850.796, 1265 850.547 C 1265 850.298, 1263.030 845.236, 1260.622 839.297 C 1258.214 833.359, 1255.477 826.138, 1254.541 823.250 C 1252.737 817.685, 1252.703 817.630, 1251.667 818.667 M 729.223 860.250 L 729.500 874.500 735.338 874.803 C 744.902 875.298, 751.874 873.362, 756.238 868.997 C 759.493 865.742, 760 864.617, 760 860.652 C 760 851.320, 751.392 846, 736.291 846 L 728.945 846 729.223 860.250" stroke="none" fill="#dab54b" fill-rule="evenodd"/>
</svg>