<?xml version="1.0" encoding="UTF-8"?>
<svg xmlns="http://www.w3.org/2000/svg" xmlns:xlink="http://www.w3.org/1999/xlink" width="140px" height="18px" viewBox="0 0 140 18" version="1.1">
<g id="surface1">
<path style=" stroke:none;fill-rule:evenodd;fill:rgb(85.490197%,70.980394%,29.411766%);fill-opacity:1;" d="M 111.085938 0.820312 C 110.621094 0.921875 109.707031 1.207031 109.074219 1.449219 C 107.96875 1.867188 107.113281 2.378906 106.699219 2.867188 C 106.414062 3.207031 106.453125 3.292969 106.925781 3.339844 C 107.226562 3.371094 107.683594 3.347656 107.796875 3.296875 C 107.835938 3.277344 107.957031 3.152344 108.066406 3.019531 C 108.566406 2.402344 109.6875 1.808594 111.25 1.335938 C 111.675781 1.210938 111.683594 1.207031 111.835938 1.242188 C 112.109375 1.304688 113.09375 1.644531 113.523438 1.828125 C 115.578125 2.699219 116.136719 3.761719 115.070312 4.765625 C 114.601562 5.210938 113.753906 5.65625 112.707031 6.015625 C 112.421875 6.113281 112.40625 6.113281 112.265625 6.082031 C 112.1875 6.066406 112.121094 6.03125 112.121094 6.003906 C 112.121094 5.914062 111.730469 5.519531 111.390625 5.273438 C 110.601562 4.699219 109.332031 4.171875 107.664062 3.726562 C 105.988281 3.28125 103.480469 2.871094 101.097656 2.660156 C 99.527344 2.515625 97.476562 2.421875 95.988281 2.421875 C 95.269531 2.421875 95.230469 2.425781 95.082031 2.472656 C 94.9375 2.519531 94.925781 2.546875 94.925781 2.8125 C 94.925781 3.175781 95.148438 3.496094 95.671875 3.894531 C 96.101562 4.21875 96.546875 4.464844 97.214844 4.746094 C 97.851562 5.011719 98.007812 5.054688 98.40625 5.054688 C 98.808594 5.054688 98.972656 5.03125 99.089844 4.960938 C 99.222656 4.878906 99.144531 4.808594 98.800781 4.679688 C 97.488281 4.191406 96.558594 3.550781 96.320312 2.964844 C 96.25 2.789062 96.304688 2.773438 97.035156 2.792969 C 97.902344 2.8125 99.21875 2.886719 100.246094 2.972656 C 105.316406 3.394531 109.304688 4.5 110.5 5.8125 C 110.828125 6.179688 110.777344 6.191406 109.746094 6.019531 C 107.683594 5.671875 105.300781 5.445312 102.722656 5.34375 C 101.515625 5.296875 98.9375 5.296875 97.726562 5.34375 C 95.4375 5.433594 93.355469 5.617188 91.449219 5.902344 C 89.964844 6.125 88.320312 6.464844 88.214844 6.574219 C 88.121094 6.671875 88.25 6.726562 89.039062 6.917969 C 91.109375 7.429688 94.476562 7.820312 97.84375 7.941406 C 99.09375 7.988281 101.386719 7.988281 102.613281 7.941406 C 103.847656 7.894531 105.351562 7.796875 106.410156 7.695312 C 107.453125 7.59375 108.757812 7.429688 108.996094 7.367188 C 109.167969 7.328125 109.214844 7.246094 109.117188 7.160156 C 109.066406 7.109375 108.734375 7.058594 108.472656 7.058594 C 108.378906 7.058594 107.839844 7.117188 107.273438 7.191406 C 104.847656 7.5 102.914062 7.617188 100.226562 7.617188 C 98.527344 7.617188 97.824219 7.59375 96.292969 7.496094 C 94.1875 7.355469 91.804688 7.046875 90.421875 6.734375 L 89.972656 6.632812 L 90.496094 6.523438 C 95.0625 5.574219 101.699219 5.386719 107.070312 6.058594 C 108.625 6.253906 109.648438 6.4375 111.164062 6.792969 C 112.925781 7.207031 114.488281 7.460938 116.609375 7.679688 C 118.789062 7.902344 120.609375 7.988281 123.066406 7.988281 C 126.964844 7.992188 130.367188 7.710938 133.441406 7.136719 C 135.070312 6.832031 135.457031 6.722656 135.335938 6.59375 C 135.265625 6.519531 134.742188 6.386719 133.824219 6.210938 C 131.8125 5.816406 129.84375 5.570312 127.542969 5.421875 C 125.53125 5.292969 125.039062 5.296875 124.851562 5.441406 C 124.75 5.515625 124.839844 5.617188 125.039062 5.660156 C 125.101562 5.671875 125.550781 5.703125 126.039062 5.726562 C 128.8125 5.867188 131.015625 6.132812 133.210938 6.589844 L 133.429688 6.636719 L 132.871094 6.75 C 129.292969 7.480469 124.46875 7.777344 119.945312 7.542969 C 117.800781 7.429688 115.785156 7.214844 114.101562 6.914062 C 113.710938 6.84375 113.640625 6.824219 113.722656 6.804688 C 113.78125 6.792969 114.296875 6.757812 114.871094 6.730469 C 118.699219 6.546875 122.351562 6.003906 124.71875 5.269531 C 127.101562 4.53125 128.375 3.714844 128.605469 2.773438 C 128.648438 2.597656 128.636719 2.554688 128.53125 2.503906 C 128.332031 2.40625 128.1875 2.398438 127.125 2.410156 C 124.714844 2.4375 122.3125 2.597656 120.191406 2.875 C 119.0625 3.019531 117.996094 3.195312 117.847656 3.257812 C 117.671875 3.332031 117.699219 3.414062 117.921875 3.480469 C 118.085938 3.527344 118.175781 3.539062 118.433594 3.539062 C 118.695312 3.539062 118.882812 3.515625 119.507812 3.414062 C 120.460938 3.257812 121.996094 3.070312 123.03125 2.984375 C 124.644531 2.851562 126.933594 2.753906 127.027344 2.816406 C 127.078125 2.847656 126.929688 3.15625 126.773438 3.347656 C 125.539062 4.835938 120.636719 6.0625 114.679688 6.371094 C 113.878906 6.414062 113.75 6.414062 113.65625 6.390625 C 113.558594 6.367188 113.582031 6.351562 113.847656 6.261719 C 115.433594 5.734375 116.648438 4.933594 116.964844 4.199219 C 117.445312 3.089844 116.015625 1.902344 113.171875 1.050781 C 112.347656 0.804688 112.113281 0.757812 111.703125 0.757812 C 111.433594 0.757812 111.3125 0.769531 111.085938 0.820312 M 53.851562 5.992188 C 51.050781 6.125 48.761719 6.640625 47.734375 7.367188 C 47.324219 7.664062 47.1875 7.863281 47.144531 8.265625 L 47.101562 8.628906 L 45.472656 8.636719 C 44.015625 8.640625 43.832031 8.644531 43.757812 8.671875 C 43.699219 8.699219 43.699219 8.714844 43.757812 8.738281 C 43.832031 8.769531 44.015625 8.773438 45.480469 8.777344 L 47.121094 8.78125 L 47.121094 10.9375 C 47.121094 12.902344 47.046875 14.039062 46.910156 14.308594 L 46.855469 14.410156 L 45.878906 14.472656 C 40.945312 14.789062 37.644531 15.363281 37.046875 16.007812 C 36.890625 16.175781 36.976562 16.386719 37.261719 16.53125 C 37.570312 16.6875 38.234375 16.84375 38.84375 16.90625 C 39.246094 16.945312 39.386719 16.949219 40.566406 16.949219 C 41.707031 16.945312 41.941406 16.941406 42.601562 16.898438 C 47.175781 16.589844 50.007812 15.402344 50.605469 13.542969 C 50.652344 13.394531 50.683594 12.421875 50.683594 11.042969 L 50.683594 8.78125 L 51.507812 8.78125 C 52.15625 8.78125 52.386719 8.773438 52.570312 8.75 C 52.699219 8.730469 52.800781 8.710938 52.800781 8.707031 C 52.800781 8.703125 52.699219 8.683594 52.570312 8.664062 C 52.386719 8.636719 52.15625 8.632812 51.5 8.632812 L 50.664062 8.632812 L 50.703125 8.085938 C 50.746094 7.496094 50.796875 7.398438 51.222656 7.105469 C 51.757812 6.738281 52.699219 6.460938 53.957031 6.304688 C 55.054688 6.164062 56.191406 6.136719 57.113281 6.226562 C 57.609375 6.273438 57.773438 6.308594 57.882812 6.390625 C 58.011719 6.488281 57.867188 6.554688 57.304688 6.65625 C 56.390625 6.816406 56.136719 6.933594 56.296875 7.117188 C 56.457031 7.308594 57.164062 7.441406 57.992188 7.441406 C 58.5625 7.441406 58.964844 7.394531 59.351562 7.285156 C 59.730469 7.171875 59.875 7.039062 59.832031 6.835938 C 59.792969 6.632812 59.609375 6.535156 58.917969 6.351562 C 57.992188 6.101562 56.886719 5.984375 55.339844 5.96875 C 54.746094 5.964844 54.234375 5.972656 53.851562 5.992188 M 21.894531 6.257812 C 19.5 6.304688 16.863281 6.550781 15.636719 6.839844 C 15.480469 6.875 15.332031 6.902344 15.300781 6.898438 C 15.230469 6.886719 13.769531 7.09375 12.960938 7.230469 C 11.695312 7.441406 10.402344 7.738281 9.765625 7.957031 C 9.625 8.007812 9.507812 8.054688 9.507812 8.058594 C 9.503906 8.066406 9.476562 8.082031 9.445312 8.097656 C 9.410156 8.109375 9.40625 8.121094 9.429688 8.121094 C 9.453125 8.121094 9.417969 8.144531 9.355469 8.175781 C 9.226562 8.238281 9.214844 8.242188 10.605469 7.886719 C 11.246094 7.71875 12.113281 7.566406 13.199219 7.421875 L 13.9375 7.320312 L 13.636719 7.480469 C 12.816406 7.910156 12.667969 8.496094 13.265625 8.941406 C 13.8125 9.351562 14.9375 9.695312 16.667969 9.984375 C 18.683594 10.316406 19.613281 10.425781 24.28125 10.863281 C 28.226562 11.234375 29.617188 11.390625 30.945312 11.609375 C 32.046875 11.792969 33.035156 12.058594 33.328125 12.253906 C 33.371094 12.28125 33.480469 12.34375 33.570312 12.394531 C 33.699219 12.460938 33.746094 12.53125 33.773438 12.683594 C 33.90625 13.460938 31.722656 14.058594 27.84375 14.308594 C 26.183594 14.414062 24.625 14.445312 22.8125 14.402344 C 22.089844 14.386719 21.929688 14.386719 21.839844 14.410156 C 21.75 14.433594 21.75 14.4375 21.84375 14.457031 C 22.171875 14.527344 25.398438 14.535156 27.046875 14.46875 C 31.066406 14.316406 33.960938 13.871094 35.222656 13.210938 C 35.753906 12.933594 35.863281 12.796875 35.863281 12.417969 C 35.863281 12.132812 35.839844 12.0625 35.695312 11.933594 C 35.480469 11.738281 35.03125 11.515625 34.527344 11.347656 C 34.308594 11.277344 34.089844 11.199219 34.039062 11.179688 C 33.816406 11.078125 32.414062 10.804688 31.277344 10.632812 C 29.757812 10.40625 28.285156 10.246094 24.433594 9.878906 C 21.445312 9.597656 20.957031 9.546875 19.644531 9.386719 C 16.164062 8.957031 14.695312 8.488281 14.886719 7.859375 C 15.113281 7.101562 17.035156 6.625 20.589844 6.433594 C 21.664062 6.378906 23.554688 6.363281 24.726562 6.40625 C 27.023438 6.484375 28.933594 6.675781 29.773438 6.902344 C 30.164062 7.007812 30.320312 7.097656 30.328125 7.222656 C 30.335938 7.324219 30.339844 7.320312 29.558594 7.695312 C 28.992188 7.964844 29.046875 8.148438 29.734375 8.320312 C 30.613281 8.539062 32.0625 8.570312 32.910156 8.382812 C 33.957031 8.152344 33.941406 7.664062 32.871094 7.257812 C 32.492188 7.109375 31.578125 6.890625 30.871094 6.773438 C 28.578125 6.394531 25.105469 6.195312 21.894531 6.257812 M 38.992188 6.871094 C 38.886719 6.890625 38.757812 6.9375 38.710938 6.976562 C 38.546875 7.097656 38.65625 7.144531 39.796875 7.433594 C 40.382812 7.582031 40.886719 7.703125 40.917969 7.703125 C 40.992188 7.703125 42.691406 7.269531 42.921875 7.191406 C 43.261719 7.074219 43.113281 6.894531 42.640625 6.855469 C 42.277344 6.820312 42.152344 6.828125 41.496094 6.902344 L 40.890625 6.96875 L 40.308594 6.902344 C 39.648438 6.824219 39.277344 6.816406 38.992188 6.871094 M 64.824219 8.539062 C 63.484375 8.59375 62.0625 8.773438 60.988281 9.019531 L 60.53125 9.128906 L 60.53125 8.898438 C 60.53125 8.742188 60.503906 8.667969 60.4375 8.65625 C 60.378906 8.644531 59.144531 8.632812 57.410156 8.625 L 54.480469 8.613281 L 54.214844 8.65625 C 54.066406 8.679688 53.945312 8.703125 53.945312 8.707031 C 53.945312 8.710938 54.070312 8.734375 54.226562 8.761719 C 54.5 8.804688 54.546875 8.804688 55.699219 8.796875 L 56.894531 8.789062 L 56.894531 14.253906 L 55.316406 14.253906 C 53.882812 14.253906 53.722656 14.253906 53.609375 14.285156 C 53.449219 14.332031 53.453125 14.351562 53.617188 14.390625 C 53.738281 14.417969 54.242188 14.417969 58.742188 14.40625 C 63.3125 14.394531 63.742188 14.390625 63.8125 14.363281 C 63.875 14.335938 63.863281 14.320312 63.753906 14.292969 C 63.621094 14.253906 63.53125 14.253906 62.070312 14.253906 L 60.53125 14.253906 L 60.53125 9.296875 L 61.023438 9.183594 C 61.90625 8.976562 62.878906 8.832031 63.917969 8.757812 C 64.714844 8.703125 66.640625 8.699219 67.460938 8.753906 C 68.699219 8.832031 69.542969 8.96875 70.046875 9.160156 C 70.738281 9.429688 70.933594 9.640625 70.933594 10.117188 C 70.929688 10.585938 70.765625 10.886719 69.914062 11.960938 C 69.335938 12.695312 69.171875 12.964844 69.117188 13.296875 C 69.039062 13.75 69.3125 14.003906 70.113281 14.210938 C 70.808594 14.394531 71.570312 14.460938 72.988281 14.460938 C 74.433594 14.460938 75.445312 14.351562 76.558594 14.074219 C 77.277344 13.894531 77.539062 13.789062 77.34375 13.757812 C 77.265625 13.746094 77.066406 13.785156 76.621094 13.894531 C 75.828125 14.085938 75.265625 14.15625 74.523438 14.15625 C 73.710938 14.15625 73.300781 14.101562 72.992188 13.949219 C 72.738281 13.824219 72.652344 13.691406 72.652344 13.429688 C 72.652344 13.074219 72.773438 12.863281 73.5625 11.855469 C 74.167969 11.082031 74.320312 10.816406 74.367188 10.457031 C 74.414062 10.105469 74.300781 9.882812 73.949219 9.632812 L 73.726562 9.476562 L 73.992188 9.378906 C 74.277344 9.277344 74.84375 9.121094 74.9375 9.121094 C 74.96875 9.121094 75.222656 9.078125 75.507812 9.023438 C 76.835938 8.773438 78.570312 8.65625 80.265625 8.707031 C 82.714844 8.777344 83.972656 9.023438 84.5625 9.554688 C 84.710938 9.683594 84.726562 9.746094 84.726562 10.125 C 84.730469 10.632812 84.632812 10.824219 83.898438 11.757812 C 83.125 12.738281 83.023438 12.914062 82.976562 13.296875 C 82.941406 13.574219 82.957031 13.667969 83.058594 13.78125 C 83.46875 14.242188 84.660156 14.460938 86.769531 14.460938 C 88.121094 14.460938 89.183594 14.351562 90.234375 14.105469 C 90.5625 14.027344 90.832031 13.957031 90.832031 13.945312 C 90.832031 13.9375 90.90625 13.90625 90.996094 13.875 C 91.089844 13.84375 91.136719 13.808594 91.109375 13.789062 C 91.070312 13.761719 90.960938 13.78125 90.550781 13.875 C 89.585938 14.09375 89.074219 14.160156 88.296875 14.160156 C 87.828125 14.164062 87.351562 14.125 87.097656 14.066406 C 86.453125 13.921875 86.265625 13.484375 86.59375 12.898438 C 86.679688 12.742188 86.988281 12.3125 87.277344 11.945312 C 87.929688 11.109375 88.097656 10.835938 88.15625 10.484375 C 88.230469 10.042969 88.035156 9.769531 87.425781 9.453125 C 86.65625 9.054688 85.261719 8.78125 83.304688 8.640625 C 81.789062 8.53125 79.300781 8.5 78.101562 8.574219 C 77.324219 8.625 76.214844 8.75 75.566406 8.867188 C 75.300781 8.914062 74.738281 9.046875 74.308594 9.160156 C 73.878906 9.273438 73.507812 9.367188 73.480469 9.367188 C 73.453125 9.367188 73.398438 9.351562 73.355469 9.328125 C 73.3125 9.304688 73.117188 9.234375 72.917969 9.171875 C 71.96875 8.882812 70.46875 8.671875 68.734375 8.585938 C 67.523438 8.523438 65.664062 8.5 64.824219 8.539062 M 101.476562 8.679688 C 96.863281 8.824219 93.09375 9.480469 91.097656 10.484375 C 89.398438 11.332031 89.265625 12.382812 90.753906 13.164062 C 92.105469 13.875 94.515625 14.324219 97.5 14.421875 C 101.671875 14.558594 104.558594 14.074219 105.636719 13.0625 L 105.8125 12.898438 L 105.855469 13.238281 C 105.902344 13.617188 106 13.746094 106.382812 13.945312 C 106.679688 14.097656 107.421875 14.300781 107.929688 14.371094 C 108.617188 14.460938 109.742188 14.484375 110.183594 14.414062 C 110.304688 14.394531 110.992188 14.386719 113.0625 14.378906 C 114.558594 14.371094 115.796875 14.363281 115.816406 14.359375 C 115.835938 14.351562 115.832031 14.335938 115.808594 14.320312 C 115.769531 14.296875 115.613281 14.289062 114.957031 14.289062 C 114.171875 14.289062 114.152344 14.289062 113.933594 14.234375 C 113.8125 14.203125 113.710938 14.164062 113.714844 14.144531 C 113.71875 14.0625 114.125 13.914062 116.339844 13.160156 C 117.625 12.726562 119 12.261719 119.390625 12.128906 C 119.78125 11.996094 120.121094 11.886719 120.148438 11.886719 C 120.214844 11.886719 120.195312 11.875 122.871094 13.132812 C 124.210938 13.757812 125.289062 14.28125 125.261719 14.292969 C 125.238281 14.300781 124.617188 14.308594 123.785156 14.308594 C 122.558594 14.308594 122.347656 14.3125 122.347656 14.335938 C 122.347656 14.363281 122.957031 14.367188 127.386719 14.367188 C 131.8125 14.367188 132.425781 14.363281 132.425781 14.335938 C 132.425781 14.3125 132.207031 14.308594 130.917969 14.308594 C 129.804688 14.308594 129.390625 14.304688 129.335938 14.285156 C 129.277344 14.269531 123.023438 11.414062 122.433594 11.132812 C 122.355469 11.097656 122.398438 11.078125 122.902344 10.9375 C 123.210938 10.851562 124.59375 10.394531 125.976562 9.925781 C 127.363281 9.460938 128.640625 9.042969 128.8125 9.003906 C 129.222656 8.90625 130.089844 8.804688 130.613281 8.789062 C 130.835938 8.78125 131.121094 8.761719 131.238281 8.742188 L 131.457031 8.710938 L 131.226562 8.679688 C 130.882812 8.636719 127.527344 8.636719 127.183594 8.679688 L 126.953125 8.710938 L 127.191406 8.746094 C 127.320312 8.765625 127.515625 8.78125 127.617188 8.78125 C 127.824219 8.78125 128.183594 8.859375 128.183594 8.902344 C 128.183594 8.964844 127.683594 9.148438 125.320312 9.949219 C 123.9375 10.417969 122.804688 10.8125 122.804688 10.816406 C 122.804688 10.824219 122.722656 10.859375 122.628906 10.890625 C 122.53125 10.921875 122.429688 10.964844 122.398438 10.984375 C 122.277344 11.066406 122.433594 11.136719 118.953125 9.527344 C 118.070312 9.117188 117.347656 8.773438 117.347656 8.765625 C 117.347656 8.75 117.90625 8.746094 118.984375 8.746094 C 120.5 8.746094 120.617188 8.742188 120.589844 8.710938 C 120.566406 8.679688 120.265625 8.679688 115.492188 8.679688 C 110.492188 8.679688 110.417969 8.679688 110.417969 8.714844 C 110.417969 8.753906 110.480469 8.753906 111.941406 8.757812 L 113.46875 8.765625 L 113.84375 8.929688 C 114.269531 9.117188 119.898438 11.753906 119.9375 11.785156 C 119.949219 11.792969 119.484375 11.964844 118.902344 12.160156 C 118.320312 12.359375 116.992188 12.808594 115.949219 13.164062 C 113.179688 14.101562 113.441406 14.027344 112.195312 14.226562 C 111.941406 14.265625 111.4375 14.304688 111.4375 14.28125 C 111.4375 14.277344 111.691406 14.210938 112 14.132812 C 112.492188 14.011719 112.878906 13.863281 112.878906 13.800781 C 112.878906 13.761719 112.773438 13.78125 112.050781 13.953125 C 111.304688 14.136719 110.972656 14.183594 110.574219 14.164062 C 110.296875 14.148438 109.976562 14.046875 109.8125 13.917969 C 109.449219 13.628906 109.449219 13.636719 109.417969 11.101562 C 109.386719 8.949219 109.375 8.714844 109.265625 8.683594 C 109.152344 8.652344 108.902344 8.648438 105.726562 8.652344 C 103.308594 8.652344 102.066406 8.660156 101.476562 8.679688 M 36.742188 8.707031 L 36.742188 8.75 L 37.976562 8.734375 C 39.015625 8.722656 39.222656 8.726562 39.300781 8.75 C 39.375 8.769531 39.390625 9.390625 39.375 11.539062 L 39.355469 14.300781 L 37.671875 14.304688 C 36.167969 14.308594 35.984375 14.3125 35.984375 14.339844 C 35.984375 14.367188 36.125 14.371094 37.472656 14.359375 C 38.292969 14.351562 40.535156 14.34375 42.457031 14.34375 C 44.375 14.339844 45.234375 14.335938 44.363281 14.332031 C 43.351562 14.328125 42.742188 14.320312 42.675781 14.304688 C 42.59375 14.289062 42.574219 13.789062 42.574219 11.488281 L 42.574219 8.6875 L 40.578125 8.6875 C 39.484375 8.6875 38.171875 8.683594 37.664062 8.675781 C 36.742188 8.664062 36.742188 8.664062 36.742188 8.707031 M 104.46875 8.800781 C 102.140625 8.828125 100.496094 8.957031 98.710938 9.253906 C 96.925781 9.546875 95.375 10.097656 94.535156 10.738281 C 93.289062 11.683594 93.480469 12.824219 95.011719 13.574219 C 96.125 14.117188 97.503906 14.328125 99.632812 14.273438 C 100.582031 14.246094 101.175781 14.210938 101.855469 14.128906 C 102.960938 14 103.652344 13.828125 104.320312 13.507812 C 104.933594 13.214844 105.363281 12.800781 105.617188 12.253906 C 105.71875 12.03125 105.804688 8.78125 105.707031 8.785156 C 105.671875 8.785156 105.117188 8.792969 104.46875 8.800781 M 8.15625 9.066406 C 8 9.125 7.996094 9.160156 8.152344 9.214844 C 8.320312 9.273438 8.539062 9.292969 9.578125 9.320312 C 10.730469 9.355469 11.785156 9.421875 12.628906 9.519531 C 12.992188 9.558594 13.316406 9.589844 13.347656 9.585938 C 13.570312 9.550781 12.597656 9.359375 11.554688 9.226562 C 10.703125 9.121094 9.714844 9.050781 8.902344 9.035156 C 8.308594 9.023438 8.273438 9.023438 8.15625 9.066406 M 8.332031 9.566406 C 7.964844 9.691406 7.757812 9.730469 7.347656 9.742188 C 7.179688 9.75 7.027344 9.757812 7.007812 9.765625 C 6.957031 9.789062 7.515625 9.910156 7.859375 9.953125 C 8.667969 10.054688 9.894531 10.085938 10.707031 10.023438 C 11.4375 9.964844 11.457031 9.910156 10.757812 9.890625 C 9.800781 9.859375 8.5625 9.75 8.5625 9.695312 C 8.5625 9.683594 8.628906 9.636719 8.710938 9.597656 C 9.042969 9.433594 8.785156 9.414062 8.332031 9.566406 M 5.984375 10.1875 C 5.453125 10.269531 4.578125 10.417969 4.414062 10.453125 C 4.199219 10.503906 4.121094 10.601562 4.246094 10.675781 C 4.339844 10.734375 4.980469 10.871094 5.433594 10.929688 C 5.726562 10.964844 5.757812 10.964844 5.757812 10.933594 C 5.757812 10.921875 5.535156 10.863281 5.265625 10.808594 C 4.382812 10.632812 4.359375 10.578125 5.125 10.453125 C 5.363281 10.417969 5.640625 10.363281 5.742188 10.335938 C 6.027344 10.261719 6.3125 10.164062 6.277344 10.15625 C 6.261719 10.152344 6.128906 10.164062 5.984375 10.1875 M 6.234375 12.25 C 6.140625 12.28125 5.832031 12.636719 5.832031 12.710938 C 5.832031 12.824219 5.929688 12.890625 6.21875 12.972656 C 6.378906 13.019531 6.632812 13.070312 6.78125 13.085938 C 7.097656 13.125 8.84375 13.164062 11.25 13.191406 C 12.886719 13.210938 13.445312 13.234375 14.050781 13.308594 C 15.117188 13.445312 15.832031 13.734375 15.835938 14.039062 C 15.835938 14.269531 16.152344 14.269531 16.253906 14.035156 C 16.316406 13.882812 16.15625 13.675781 15.859375 13.523438 C 15.585938 13.382812 14.902344 13.214844 14.269531 13.132812 L 13.773438 13.066406 L 14.292969 13.015625 C 15.207031 12.921875 16.589844 12.683594 16.589844 12.613281 C 16.589844 12.574219 16.460938 12.582031 15.988281 12.652344 C 15.09375 12.789062 13.925781 12.886719 12.792969 12.925781 C 11.859375 12.957031 9.59375 12.96875 8.445312 12.949219 C 7.3125 12.929688 6.753906 12.890625 6.597656 12.816406 C 6.550781 12.792969 6.515625 12.667969 6.515625 12.523438 C 6.515625 12.332031 6.488281 12.265625 6.410156 12.25 C 6.332031 12.230469 6.289062 12.234375 6.234375 12.25 M 45.242188 14.707031 C 41.785156 14.964844 39.40625 15.308594 38.402344 15.695312 C 37.925781 15.878906 37.777344 15.996094 37.769531 16.195312 C 37.765625 16.347656 37.789062 16.375 37.992188 16.476562 C 38.414062 16.683594 39.109375 16.769531 40.34375 16.769531 C 41.9375 16.769531 43.398438 16.597656 44.292969 16.300781 C 45.277344 15.976562 45.945312 15.53125 46.359375 14.921875 C 46.546875 14.644531 46.550781 14.628906 46.382812 14.632812 C 46.308594 14.632812 45.796875 14.667969 45.242188 14.707031 M 54.714844 15.34375 L 54.546875 15.351562 L 54.546875 16.65625 L 55.476562 16.65625 C 56.5625 16.65625 57.167969 16.632812 57.648438 16.570312 C 58.054688 16.519531 58.25 16.445312 58.304688 16.320312 C 58.367188 16.179688 58.117188 16.078125 57.546875 16.003906 C 57.300781 15.972656 57.101562 15.9375 57.101562 15.925781 C 57.101562 15.917969 57.253906 15.890625 57.445312 15.863281 C 57.902344 15.804688 58.0625 15.730469 58.011719 15.59375 C 57.980469 15.511719 57.933594 15.484375 57.730469 15.441406 C 57.351562 15.363281 56.75 15.332031 55.753906 15.332031 C 55.277344 15.335938 54.808594 15.339844 54.714844 15.34375 M 88.808594 15.34375 L 88.636719 15.351562 L 88.636719 16.636719 L 89.167969 16.636719 L 89.167969 16.386719 C 89.167969 16.226562 89.199219 16.125 89.25 16.113281 C 89.300781 16.101562 89.503906 16.097656 89.761719 16.101562 C 90.3125 16.113281 91.207031 16.066406 91.644531 16 C 92.046875 15.941406 92.269531 15.839844 92.269531 15.707031 C 92.277344 15.4375 91.558594 15.328125 89.859375 15.332031 C 89.375 15.335938 88.902344 15.339844 88.808594 15.34375 M 98.957031 15.34375 L 98.789062 15.351562 L 98.789062 16.636719 L 99.316406 16.636719 L 99.316406 16.367188 C 99.316406 16.179688 99.347656 16.089844 99.410156 16.074219 C 99.519531 16.046875 100.3125 16.042969 100.691406 16.070312 C 101.164062 16.101562 101.472656 16.210938 101.753906 16.4375 L 101.996094 16.636719 L 102.292969 16.636719 C 102.546875 16.636719 102.585938 16.632812 102.539062 16.605469 C 102.507812 16.585938 102.398438 16.5 102.296875 16.410156 C 102.050781 16.203125 101.914062 16.136719 101.589844 16.085938 C 101.445312 16.058594 101.328125 16.03125 101.335938 16.019531 C 101.339844 16.011719 101.503906 15.984375 101.699219 15.957031 C 102.175781 15.894531 102.371094 15.824219 102.40625 15.691406 C 102.472656 15.429688 101.804688 15.328125 100.039062 15.335938 C 99.539062 15.335938 99.050781 15.339844 98.957031 15.34375 M 109.621094 15.355469 C 108.40625 15.441406 107.769531 15.640625 107.675781 15.964844 C 107.609375 16.191406 108.007812 16.425781 108.636719 16.53125 C 109.203125 16.625 109.804688 16.660156 110.605469 16.652344 C 111.761719 16.636719 112.492188 16.542969 112.921875 16.363281 C 113.339844 16.183594 113.4375 15.964844 113.1875 15.765625 C 112.917969 15.550781 112.40625 15.425781 111.519531 15.359375 C 111.035156 15.324219 110.105469 15.324219 109.621094 15.355469 M 121.15625 15.34375 L 120.984375 15.351562 L 120.984375 16.636719 L 121.515625 16.636719 L 121.515625 16.367188 C 121.515625 16.179688 121.542969 16.089844 121.605469 16.074219 C 121.71875 16.046875 122.507812 16.042969 122.890625 16.070312 C 123.363281 16.101562 123.671875 16.210938 123.949219 16.4375 L 124.191406 16.636719 L 124.492188 16.636719 C 124.746094 16.636719 124.78125 16.632812 124.734375 16.605469 C 124.707031 16.585938 124.597656 16.5 124.492188 16.410156 C 124.246094 16.203125 124.109375 16.136719 123.789062 16.085938 C 123.640625 16.058594 123.527344 16.03125 123.53125 16.019531 C 123.535156 16.011719 123.699219 15.984375 123.894531 15.957031 C 124.375 15.894531 124.570312 15.824219 124.601562 15.691406 C 124.667969 15.429688 124 15.328125 122.234375 15.335938 C 121.734375 15.335938 121.25 15.339844 121.15625 15.34375 M 59.773438 15.992188 L 59.773438 16.636719 L 61.4375 16.636719 C 63.054688 16.636719 63.105469 16.636719 63.105469 16.597656 C 63.105469 16.5625 63.054688 16.5625 61.796875 16.5625 C 60.878906 16.5625 60.457031 16.554688 60.394531 16.539062 C 60.332031 16.523438 60.304688 16.4375 60.304688 16.277344 C 60.304688 16.117188 60.332031 16.03125 60.394531 16.015625 C 60.457031 16 60.84375 15.992188 61.644531 15.992188 C 62.753906 15.992188 62.804688 15.992188 62.804688 15.957031 C 62.804688 15.917969 62.753906 15.917969 61.644531 15.917969 C 60.84375 15.917969 60.457031 15.910156 60.394531 15.894531 C 60.335938 15.878906 60.304688 15.800781 60.304688 15.671875 C 60.304688 15.542969 60.335938 15.464844 60.394531 15.449219 C 60.457031 15.433594 60.859375 15.425781 61.71875 15.425781 C 62.902344 15.425781 62.953125 15.425781 62.953125 15.386719 C 62.953125 15.351562 62.902344 15.351562 61.363281 15.351562 L 59.773438 15.351562 L 59.773438 15.992188 M 65.980469 15.398438 C 65.941406 15.425781 65.480469 15.710938 64.960938 16.035156 C 64.441406 16.355469 64.015625 16.621094 64.015625 16.628906 C 64.015625 16.632812 64.144531 16.636719 64.300781 16.636719 L 64.585938 16.636719 L 64.839844 16.464844 C 65.246094 16.191406 65.191406 16.203125 66.472656 16.203125 C 67.375 16.203125 67.574219 16.207031 67.660156 16.230469 C 67.71875 16.25 67.902344 16.34375 68.070312 16.445312 L 68.371094 16.628906 L 68.691406 16.632812 L 69.007812 16.640625 L 67.96875 15.996094 L 66.933594 15.351562 L 66.496094 15.351562 C 66.089844 15.351562 66.050781 15.355469 65.980469 15.398438 M 70.074219 15.8125 C 70.074219 16.234375 70.089844 16.285156 70.230469 16.378906 C 70.511719 16.570312 71.152344 16.65625 72.25 16.65625 C 73.316406 16.65625 74.023438 16.554688 74.316406 16.359375 C 74.453125 16.269531 74.46875 16.210938 74.46875 15.804688 L 74.46875 15.351562 L 73.949219 15.351562 L 73.925781 15.808594 C 73.902344 16.261719 73.898438 16.269531 73.707031 16.363281 C 73.589844 16.421875 73.386719 16.480469 73.191406 16.515625 C 72.894531 16.566406 72.808594 16.570312 72.273438 16.570312 C 71.734375 16.570312 71.648438 16.566406 71.355469 16.515625 C 71.160156 16.480469 70.953125 16.421875 70.835938 16.363281 C 70.648438 16.269531 70.644531 16.261719 70.621094 15.808594 L 70.597656 15.351562 L 70.074219 15.351562 L 70.074219 15.8125 M 75.53125 15.386719 C 75.53125 15.421875 75.582031 15.425781 76.425781 15.425781 C 77.019531 15.425781 77.347656 15.433594 77.410156 15.449219 C 77.476562 15.464844 77.5 15.625 77.5 16.054688 L 77.5 16.636719 L 78.03125 16.636719 L 78.03125 16.054688 C 78.03125 15.625 78.054688 15.464844 78.121094 15.449219 C 78.183594 15.433594 78.511719 15.425781 79.105469 15.425781 C 79.949219 15.425781 80 15.421875 80 15.386719 C 80 15.351562 79.949219 15.351562 77.765625 15.351562 C 75.582031 15.351562 75.53125 15.351562 75.53125 15.386719 M 80.882812 15.375 C 80.914062 15.386719 81.359375 15.558594 81.871094 15.753906 L 82.804688 16.109375 L 82.804688 16.636719 L 83.332031 16.636719 L 83.335938 16.367188 L 83.335938 16.097656 L 84.289062 15.757812 C 85.523438 15.316406 85.457031 15.351562 85.058594 15.351562 L 84.730469 15.351562 L 84.015625 15.648438 C 83.625 15.8125 83.257812 15.960938 83.199219 15.976562 C 83.066406 16.011719 83.074219 16.015625 82.191406 15.640625 L 81.511719 15.351562 L 81.167969 15.351562 C 80.914062 15.351562 80.839844 15.355469 80.882812 15.375 M 94.390625 15.398438 C 94.347656 15.425781 93.890625 15.710938 93.371094 16.035156 C 92.851562 16.355469 92.425781 16.621094 92.425781 16.628906 C 92.425781 16.632812 92.554688 16.636719 92.710938 16.636719 L 92.996094 16.636719 L 93.25 16.464844 C 93.65625 16.191406 93.597656 16.203125 94.882812 16.203125 C 95.78125 16.203125 95.984375 16.207031 96.070312 16.230469 C 96.128906 16.25 96.3125 16.34375 96.476562 16.445312 L 96.78125 16.628906 L 97.097656 16.632812 L 97.417969 16.640625 L 95.339844 15.351562 L 94.902344 15.351562 C 94.5 15.351562 94.460938 15.355469 94.390625 15.398438 M 103.9375 15.992188 L 103.9375 16.636719 L 105.605469 16.636719 C 107.222656 16.636719 107.273438 16.636719 107.273438 16.597656 C 107.273438 16.5625 107.222656 16.5625 105.960938 16.5625 C 105.042969 16.5625 104.625 16.554688 104.5625 16.539062 C 104.492188 16.523438 104.46875 16.359375 104.46875 15.933594 L 104.46875 15.351562 L 103.9375 15.351562 L 103.9375 15.992188 M 114.773438 15.8125 C 114.773438 16.234375 114.785156 16.285156 114.929688 16.378906 C 115.210938 16.570312 115.851562 16.65625 116.949219 16.65625 C 118.011719 16.65625 118.722656 16.554688 119.015625 16.359375 C 119.152344 16.269531 119.167969 16.210938 119.167969 15.804688 L 119.167969 15.351562 L 118.644531 15.351562 L 118.621094 15.808594 C 118.597656 16.261719 118.59375 16.269531 118.40625 16.363281 C 118.289062 16.421875 118.082031 16.480469 117.886719 16.515625 C 117.59375 16.566406 117.507812 16.570312 116.96875 16.570312 C 116.433594 16.570312 116.347656 16.566406 116.050781 16.515625 C 115.855469 16.480469 115.652344 16.421875 115.535156 16.363281 C 115.34375 16.269531 115.339844 16.261719 115.316406 15.808594 L 115.292969 15.351562 L 114.773438 15.351562 L 114.773438 15.8125 M 55.320312 15.4375 C 55.253906 15.445312 55.226562 15.511719 55.226562 15.667969 L 55.226562 15.882812 L 55.929688 15.875 C 56.484375 15.871094 56.691406 15.859375 56.902344 15.828125 C 57.511719 15.734375 57.5 15.550781 56.875 15.472656 C 56.636719 15.441406 55.511719 15.414062 55.320312 15.4375 M 89.5625 15.4375 L 89.3125 15.449219 L 89.335938 15.714844 L 89.355469 15.984375 L 90.039062 15.984375 C 90.585938 15.984375 90.769531 15.976562 90.984375 15.945312 C 91.773438 15.828125 91.796875 15.574219 91.023438 15.484375 C 90.707031 15.445312 89.992188 15.421875 89.5625 15.4375 M 99.640625 15.4375 C 99.472656 15.445312 99.46875 15.453125 99.46875 15.703125 L 99.46875 15.960938 L 100.210938 15.953125 C 100.820312 15.945312 101 15.9375 101.234375 15.902344 C 102.003906 15.78125 101.882812 15.535156 101.019531 15.460938 C 100.667969 15.429688 100.035156 15.421875 99.640625 15.4375 M 121.835938 15.4375 C 121.671875 15.445312 121.667969 15.453125 121.667969 15.703125 L 121.667969 15.960938 L 122.40625 15.953125 C 123.015625 15.945312 123.199219 15.9375 123.429688 15.902344 C 124.199219 15.78125 124.078125 15.535156 123.21875 15.460938 C 122.867188 15.429688 122.230469 15.421875 121.835938 15.4375 M 109.621094 15.484375 C 109.175781 15.535156 108.894531 15.601562 108.652344 15.71875 C 108.476562 15.800781 108.453125 15.835938 108.449219 15.992188 C 108.449219 16.152344 108.46875 16.183594 108.648438 16.269531 C 109.046875 16.457031 109.621094 16.542969 110.496094 16.542969 C 110.933594 16.542969 111.109375 16.53125 111.445312 16.492188 C 112.207031 16.394531 112.628906 16.183594 112.558594 15.9375 C 112.472656 15.636719 111.671875 15.445312 110.492188 15.445312 C 110.121094 15.445312 109.859375 15.457031 109.621094 15.484375 M 66.414062 15.496094 C 66.386719 15.503906 66.363281 15.519531 66.363281 15.535156 C 66.363281 15.550781 66.175781 15.679688 65.945312 15.828125 C 65.71875 15.972656 65.53125 16.09375 65.53125 16.097656 C 65.53125 16.105469 65.957031 16.105469 66.476562 16.105469 C 67 16.105469 67.425781 16.101562 67.425781 16.097656 C 67.425781 16.09375 67.273438 16 67.09375 15.886719 C 66.910156 15.773438 66.703125 15.636719 66.632812 15.582031 C 66.496094 15.476562 66.492188 15.476562 66.414062 15.496094 M 94.824219 15.496094 C 94.796875 15.503906 94.773438 15.519531 94.773438 15.535156 C 94.773438 15.550781 94.585938 15.679688 94.355469 15.828125 C 94.125 15.972656 93.9375 16.09375 93.9375 16.097656 C 93.9375 16.105469 94.367188 16.105469 94.886719 16.105469 C 95.40625 16.105469 95.832031 16.101562 95.832031 16.097656 C 95.832031 16.09375 95.683594 16 95.5 15.886719 C 95.320312 15.773438 95.113281 15.636719 95.039062 15.582031 C 94.90625 15.476562 94.902344 15.476562 94.824219 15.496094 M 55.246094 16.28125 L 55.265625 16.550781 L 55.707031 16.558594 C 56.433594 16.566406 56.960938 16.53125 57.289062 16.449219 C 57.539062 16.386719 57.574219 16.363281 57.574219 16.289062 C 57.574219 16.113281 56.921875 16.011719 55.78125 16.011719 L 55.222656 16.011719 L 55.246094 16.28125 "/>
</g>
</svg>
