<?xml version="1.0" encoding="UTF-8"?>
<svg xmlns="http://www.w3.org/2000/svg" xmlns:xlink="http://www.w3.org/1999/xlink" width="972px" height="500px" viewBox="0 0 971 500" version="1.1">
<g id="surface1">
<path style=" stroke:none;fill-rule:evenodd;fill:rgb(85.490197%,70.980394%,29.411766%);fill-opacity:1;" d="M 770.472656 22.738281 C 767.246094 25.566406 760.882812 33.519531 756.492188 40.222656 C 748.835938 51.90625 742.902344 66.121094 740.042969 79.640625 C 738.050781 89.050781 738.335938 91.445312 741.621094 92.820312 C 743.6875 93.683594 746.871094 93.015625 747.652344 91.554688 C 747.925781 91.042969 748.769531 87.5625 749.523438 83.824219 C 752.976562 66.6875 760.769531 50.214844 771.601562 37.15625 C 774.539062 33.617188 774.59375 33.582031 775.664062 34.527344 C 777.546875 36.1875 784.398438 45.671875 787.378906 50.742188 C 801.609375 74.941406 805.492188 104.527344 798.09375 132.425781 C 794.832031 144.722656 788.96875 157.117188 781.691406 167.101562 C 779.726562 169.796875 779.613281 169.867188 778.644531 168.992188 C 778.09375 168.492188 777.640625 167.496094 777.640625 166.78125 C 777.640625 164.257812 774.917969 153.371094 772.574219 146.53125 C 767.09375 130.515625 758.292969 115.871094 746.726562 103.523438 C 735.105469 91.117188 717.71875 79.78125 701.191406 73.839844 C 690.304688 69.921875 676.070312 67.296875 665.734375 67.296875 C 660.753906 67.296875 660.5 67.351562 659.457031 68.683594 C 658.460938 69.949219 658.367188 70.769531 658.367188 78.113281 C 658.367188 88.203125 659.914062 97.15625 663.5625 108.214844 C 666.523438 117.1875 669.636719 124.0625 674.25 131.832031 C 678.664062 139.265625 679.742188 140.378906 682.519531 140.378906 C 685.3125 140.378906 686.433594 139.761719 687.257812 137.765625 C 688.167969 135.566406 687.644531 133.519531 685.261719 129.980469 C 676.140625 116.441406 669.699219 98.625 668.0625 82.410156 C 667.5625 77.460938 667.949219 77.078125 673.003906 77.550781 C 679.015625 78.113281 688.160156 80.164062 695.277344 82.542969 C 730.445312 94.300781 758.117188 125.035156 766.382812 161.507812 C 768.679688 171.632812 768.328125 172.011719 761.164062 167.195312 C 746.867188 157.585938 730.339844 151.226562 712.46875 148.449219 C 704.09375 147.148438 686.207031 147.160156 677.808594 148.464844 C 661.929688 150.9375 647.5 156.074219 634.277344 163.953125 C 623.984375 170.089844 612.574219 179.558594 611.839844 182.570312 C 611.179688 185.292969 612.074219 186.800781 617.542969 192.1875 C 631.910156 206.339844 655.261719 217.210938 678.621094 220.617188 C 687.277344 221.882812 703.1875 221.875 711.699219 220.601562 C 720.265625 219.324219 730.691406 216.605469 738.019531 213.738281 C 745.253906 210.90625 754.3125 206.34375 755.964844 204.695312 C 757.160156 203.507812 757.476562 201.328125 756.8125 198.847656 C 756.453125 197.511719 754.164062 196.109375 752.332031 196.109375 C 751.675781 196.109375 747.941406 197.738281 744.03125 199.730469 C 727.1875 208.308594 713.777344 211.550781 695.148438 211.550781 C 683.359375 211.550781 678.480469 210.949219 667.871094 208.183594 C 653.25 204.371094 636.722656 195.800781 627.132812 187.054688 L 624.011719 184.207031 L 627.660156 181.171875 C 659.335938 154.824219 705.355469 149.667969 742.609375 168.292969 C 753.402344 173.6875 760.476562 178.769531 771.011719 188.691406 C 783.214844 200.183594 794.0625 207.246094 808.765625 213.273438 C 823.890625 219.46875 836.519531 221.914062 853.566406 221.945312 C 880.59375 221.996094 904.191406 214.226562 925.503906 198.269531 C 936.820312 189.796875 939.484375 186.734375 938.644531 183.148438 C 938.171875 181.132812 934.527344 177.414062 928.175781 172.472656 C 914.222656 161.613281 900.566406 154.773438 884.613281 150.648438 C 870.640625 147.035156 867.246094 147.117188 865.929688 151.105469 C 865.242188 153.195312 865.859375 156.066406 867.246094 157.21875 C 867.660156 157.5625 870.777344 158.410156 874.175781 159.101562 C 893.398438 163.003906 908.675781 170.371094 923.917969 183.085938 L 925.4375 184.351562 L 921.550781 187.527344 C 896.746094 207.800781 863.292969 215.992188 831.902344 209.480469 C 817.042969 206.398438 803.0625 200.386719 791.382812 192.054688 C 788.667969 190.117188 788.179688 189.558594 788.753906 189.039062 C 789.144531 188.6875 792.726562 187.769531 796.714844 186.996094 C 823.269531 181.871094 848.605469 166.820312 865.023438 146.425781 C 881.546875 125.890625 890.371094 103.15625 891.96875 77 C 892.261719 72.15625 892.175781 70.910156 891.460938 69.523438 C 890.085938 66.863281 889.074219 66.59375 881.707031 66.933594 C 864.980469 67.703125 848.335938 72.164062 833.609375 79.828125 C 825.789062 83.898438 818.382812 88.753906 817.363281 90.488281 C 816.125 92.578125 816.316406 94.835938 817.882812 96.699219 C 819.003906 98.03125 819.628906 98.316406 821.429688 98.308594 C 823.234375 98.300781 824.53125 97.695312 828.871094 94.835938 C 835.488281 90.472656 846.136719 85.265625 853.304688 82.894531 C 864.5 79.191406 880.367188 76.523438 881.023438 78.234375 C 881.371094 79.144531 880.351562 87.683594 879.265625 92.949219 C 870.714844 134.363281 836.710938 168.433594 795.390625 176.984375 C 789.824219 178.136719 788.945312 178.203125 788.273438 177.53125 C 787.601562 176.859375 787.769531 176.417969 789.621094 173.949219 C 800.621094 159.285156 809.027344 136.992188 811.238281 116.609375 C 814.578125 85.84375 804.652344 52.867188 784.921875 29.179688 C 779.210938 22.320312 777.597656 21.03125 774.75 21.03125 C 772.875 21.03125 772.042969 21.363281 770.472656 22.738281 M 373.503906 166.402344 C 354.066406 170.09375 338.183594 184.425781 331.078125 204.679688 C 328.214844 212.84375 327.289062 218.476562 326.972656 229.617188 L 326.683594 239.726562 L 315.378906 239.867188 C 305.277344 239.996094 304.015625 240.109375 303.496094 240.929688 C 303.074219 241.601562 303.074219 242.101562 303.496094 242.769531 C 304.015625 243.59375 305.28125 243.707031 315.449219 243.832031 L 326.820312 243.972656 L 326.8125 303.769531 C 326.808594 358.40625 326.316406 390.007812 325.351562 397.429688 L 324.980469 400.273438 L 318.214844 402.019531 C 283.980469 410.851562 261.085938 426.804688 256.933594 444.714844 C 255.859375 449.351562 256.460938 455.164062 258.433594 459.171875 C 260.5625 463.503906 265.179688 467.890625 269.398438 469.59375 C 272.1875 470.71875 273.171875 470.816406 281.371094 470.777344 C 289.277344 470.742188 290.894531 470.578125 295.46875 469.351562 C 327.191406 460.851562 346.847656 427.875 350.972656 376.238281 C 351.304688 372.09375 351.515625 345.046875 351.515625 306.707031 L 351.515625 243.953125 L 357.25 243.953125 C 361.75 243.953125 363.339844 243.753906 364.605469 243.035156 C 365.492188 242.527344 366.21875 241.996094 366.21875 241.851562 C 366.21875 241.707031 365.492188 241.171875 364.605469 240.667969 C 363.335938 239.945312 361.746094 239.746094 357.1875 239.746094 L 351.390625 239.746094 L 351.664062 224.632812 C 351.964844 208.242188 352.324219 205.515625 355.269531 197.378906 C 358.964844 187.15625 365.507812 179.464844 374.21875 175.089844 C 381.847656 171.261719 389.730469 170.476562 396.125 172.90625 C 399.550781 174.210938 400.691406 175.199219 401.460938 177.539062 C 402.351562 180.238281 401.34375 182.070312 397.453125 184.851562 C 391.101562 189.386719 389.355469 192.589844 390.449219 197.695312 C 391.582031 202.984375 396.480469 206.757812 402.21875 206.757812 C 406.171875 206.757812 408.972656 205.4375 411.640625 202.320312 C 414.28125 199.230469 415.273438 195.535156 414.984375 189.851562 C 414.695312 184.234375 413.433594 181.550781 408.644531 176.382812 C 402.222656 169.453125 394.539062 166.1875 383.828125 165.839844 C 379.691406 165.707031 376.140625 165.902344 373.503906 166.402344 M 151.851562 173.871094 C 135.253906 175.179688 116.957031 181.980469 108.457031 190.003906 C 107.375 191.023438 106.332031 191.757812 106.132812 191.636719 C 105.625 191.324219 95.496094 197.039062 89.898438 200.808594 C 81.105469 206.722656 72.160156 214.902344 67.730469 221.074219 C 66.746094 222.445312 65.9375 223.71875 65.933594 223.902344 C 65.929688 224.085938 65.738281 224.535156 65.507812 224.894531 C 65.277344 225.257812 65.230469 225.550781 65.398438 225.550781 C 65.566406 225.550781 65.332031 226.273438 64.875 227.15625 C 64 228.851562 63.921875 228.925781 73.5625 219.023438 C 78.007812 214.457031 84.019531 210.144531 91.554688 206.117188 L 96.675781 203.378906 L 94.582031 207.761719 C 88.878906 219.695312 87.847656 235.976562 92.007812 248.421875 C 95.796875 259.757812 103.597656 269.3125 115.59375 277.304688 C 129.574219 286.617188 136.03125 289.609375 168.402344 301.777344 C 195.773438 312.066406 205.410156 316.394531 214.625 322.53125 C 222.277344 327.628906 229.132812 335.011719 231.15625 340.335938 C 231.449219 341.113281 232.207031 342.871094 232.839844 344.246094 C 233.714844 346.144531 234.046875 348.0625 234.230469 352.273438 C 235.164062 373.878906 220.007812 390.53125 193.101562 397.476562 C 181.609375 400.441406 170.78125 401.246094 158.210938 400.066406 C 153.222656 399.597656 152.101562 399.628906 151.484375 400.246094 C 150.851562 400.878906 150.851562 401.070312 151.496094 401.605469 C 153.765625 403.492188 176.15625 403.703125 187.578125 401.949219 C 215.476562 397.664062 235.539062 385.285156 244.300781 366.945312 C 247.972656 359.257812 248.730469 355.492188 248.730469 344.898438 C 248.730469 337.027344 248.5625 335.09375 247.566406 331.492188 C 246.082031 326.105469 242.960938 319.851562 239.460938 315.246094 C 237.945312 313.253906 236.425781 311.117188 236.078125 310.503906 C 234.546875 307.777344 224.808594 300.097656 216.925781 295.390625 C 206.386719 289.105469 196.164062 284.59375 169.453125 274.4375 C 148.742188 266.566406 145.347656 265.160156 136.257812 260.699219 C 112.097656 248.839844 101.921875 235.769531 103.242188 218.289062 C 104.824219 197.285156 118.140625 183.976562 142.8125 178.738281 C 150.242188 177.164062 163.367188 176.796875 171.5 177.9375 C 187.414062 180.175781 200.683594 185.390625 206.496094 191.703125 C 209.207031 194.644531 210.296875 197.167969 210.355469 200.632812 C 210.402344 203.414062 210.441406 203.320312 205 213.753906 C 201.09375 221.25 201.449219 226.34375 206.21875 231.121094 C 212.320312 237.238281 222.375 238.023438 228.261719 232.835938 C 235.519531 226.445312 235.402344 212.941406 227.988281 201.558594 C 225.355469 197.507812 219.019531 191.386719 214.113281 188.144531 C 198.214844 177.640625 174.125 172.117188 151.851562 173.871094 M 270.445312 190.859375 C 269.703125 191.441406 268.824219 192.746094 268.492188 193.753906 C 267.355469 197.195312 268.09375 198.449219 276.015625 206.492188 C 280.074219 210.613281 283.570312 213.984375 283.785156 213.984375 C 284.304688 213.984375 296.089844 201.917969 297.699219 199.734375 C 300.054688 196.539062 299.011719 191.519531 295.757812 190.382812 C 293.222656 189.5 292.363281 189.640625 287.8125 191.695312 L 283.617188 193.59375 L 279.582031 191.695312 C 274.984375 189.539062 272.421875 189.304688 270.445312 190.859375 M 449.59375 237.144531 C 440.296875 238.703125 430.457031 243.679688 423.007812 250.578125 L 419.820312 253.53125 L 419.820312 247.230469 C 419.820312 242.816406 419.625 240.773438 419.164062 240.410156 C 418.773438 240.101562 410.207031 239.753906 398.183594 239.554688 L 377.859375 239.222656 L 376.007812 240.40625 C 374.988281 241.054688 374.152344 241.707031 374.152344 241.851562 C 374.152344 241.996094 375.03125 242.675781 376.101562 243.359375 C 377.988281 244.570312 378.3125 244.601562 386.324219 244.371094 L 394.601562 244.132812 L 394.601562 395.898438 L 383.648438 395.898438 C 373.703125 395.898438 372.613281 395.988281 371.824219 396.859375 C 370.71875 398.085938 370.730469 398.6875 371.878906 399.726562 C 372.710938 400.480469 376.203125 400.527344 407.417969 400.203125 C 439.125 399.871094 442.085938 399.769531 442.597656 398.953125 C 443.027344 398.269531 442.929688 397.8125 442.179688 396.980469 C 441.253906 395.957031 440.636719 395.898438 430.511719 395.898438 L 419.820312 395.898438 L 419.820312 258.269531 L 423.230469 255.078125 C 429.371094 249.332031 436.097656 245.386719 443.308594 243.308594 C 448.84375 241.714844 462.207031 241.609375 467.898438 243.113281 C 476.472656 245.382812 482.328125 249.101562 485.816406 254.5 C 490.621094 261.929688 491.980469 267.785156 491.960938 281.019531 C 491.945312 294.101562 490.800781 302.425781 484.902344 332.28125 C 480.886719 352.621094 479.761719 360.167969 479.378906 369.347656 C 478.847656 382 480.746094 388.988281 486.285156 394.800781 C 491.105469 399.855469 496.394531 401.683594 506.214844 401.683594 C 516.242188 401.683594 523.269531 398.628906 530.976562 390.925781 C 535.964844 385.9375 537.777344 383.039062 536.429688 382.207031 C 535.902344 381.882812 534.5 382.921875 531.433594 385.917969 C 525.933594 391.289062 522.015625 393.269531 516.878906 393.269531 C 511.234375 393.269531 508.398438 391.722656 506.261719 387.488281 C 504.496094 383.976562 503.890625 380.292969 503.890625 373.03125 C 503.890625 363.171875 504.730469 357.351562 510.214844 329.269531 C 514.402344 307.824219 515.472656 300.40625 515.800781 290.484375 C 516.125 280.726562 515.335938 274.546875 512.878906 267.601562 L 511.34375 263.257812 L 513.195312 260.570312 C 515.175781 257.703125 519.09375 253.417969 519.734375 253.417969 C 519.949219 253.417969 521.730469 252.195312 523.699219 250.699219 C 532.910156 243.699219 544.933594 240.460938 556.695312 241.816406 C 573.691406 243.773438 582.414062 250.660156 586.503906 265.355469 C 587.519531 269 587.644531 270.765625 587.652344 281.28125 C 587.660156 295.371094 586.988281 300.652344 581.886719 326.609375 C 576.542969 353.796875 575.8125 358.667969 575.496094 369.410156 C 575.265625 377.113281 575.378906 379.679688 576.078125 382.816406 C 578.929688 395.605469 587.179688 401.652344 601.808594 401.675781 C 611.195312 401.6875 618.558594 398.667969 625.832031 391.820312 C 628.121094 389.667969 629.992188 387.683594 629.992188 387.410156 C 629.992188 387.140625 630.5 386.234375 631.117188 385.402344 C 631.769531 384.511719 632.097656 383.519531 631.902344 383.011719 C 631.632812 382.304688 630.890625 382.761719 628.023438 385.398438 C 621.34375 391.539062 617.796875 393.347656 612.390625 393.378906 C 609.140625 393.398438 605.855469 392.359375 604.078125 390.753906 C 599.605469 386.703125 598.300781 374.589844 600.589844 358.285156 C 601.195312 353.976562 603.332031 342.042969 605.339844 331.773438 C 609.863281 308.628906 611.011719 300.984375 611.421875 291.273438 C 611.945312 278.988281 610.59375 271.335938 606.355469 262.578125 C 601.023438 251.554688 591.347656 243.921875 577.785156 240.03125 C 567.269531 237.015625 550.019531 236.148438 541.691406 238.222656 C 536.296875 239.5625 528.59375 243.105469 524.105469 246.308594 C 522.277344 247.617188 518.351562 251.285156 515.378906 254.46875 C 512.410156 257.648438 509.828125 260.253906 509.644531 260.253906 C 509.464844 260.253906 509.070312 259.71875 508.773438 259.070312 C 508.476562 258.417969 507.109375 256.507812 505.738281 254.824219 C 499.160156 246.75 488.757812 240.890625 476.722656 238.480469 C 468.332031 236.800781 455.425781 236.164062 449.59375 237.144531 M 703.816406 241.121094 C 671.8125 245.160156 645.683594 263.332031 631.820312 291.183594 C 620.054688 314.824219 619.121094 344 629.433594 365.714844 C 638.8125 385.464844 655.535156 397.933594 676.230469 400.613281 C 705.164062 404.359375 725.1875 390.976562 732.65625 362.898438 L 733.875 358.308594 L 734.179688 367.769531 C 734.511719 378.28125 735.183594 381.871094 737.832031 387.339844 C 739.890625 391.597656 745.035156 397.253906 748.578125 399.164062 C 753.335938 401.726562 761.140625 402.324219 764.203125 400.359375 C 765.03125 399.832031 769.804688 399.59375 784.15625 399.367188 C 794.535156 399.203125 803.132812 398.957031 803.269531 398.820312 C 803.40625 398.683594 803.375 398.207031 803.207031 397.761719 C 802.953125 397.101562 801.859375 396.949219 797.320312 396.949219 C 791.859375 396.949219 791.714844 396.917969 790.210938 395.414062 C 789.367188 394.566406 788.679688 393.445312 788.6875 392.917969 C 788.714844 390.667969 791.527344 386.449219 806.898438 365.597656 C 815.824219 353.492188 825.34375 340.570312 828.050781 336.882812 C 830.757812 333.195312 833.121094 330.179688 833.304688 330.179688 C 833.777344 330.179688 833.628906 329.90625 852.207031 364.769531 C 861.5 382.203125 868.960938 396.695312 868.789062 396.972656 C 868.609375 397.265625 864.296875 397.476562 858.527344 397.476562 C 850.03125 397.476562 848.574219 397.589844 848.574219 398.265625 C 848.574219 398.957031 852.808594 399.054688 883.515625 399.054688 C 914.222656 399.054688 918.457031 398.957031 918.457031 398.265625 C 918.457031 397.589844 916.945312 397.476562 908.011719 397.476562 C 900.292969 397.476562 897.425781 397.304688 897.027344 396.820312 C 896.632812 396.335938 853.261719 317.019531 849.171875 309.296875 C 848.613281 308.242188 848.917969 307.722656 852.417969 303.777344 C 854.542969 301.382812 864.140625 288.773438 873.75 275.761719 C 883.359375 262.75 892.207031 251.183594 893.410156 250.054688 C 896.242188 247.410156 902.257812 244.542969 905.882812 244.113281 C 907.453125 243.929688 909.414062 243.363281 910.246094 242.859375 L 911.753906 241.941406 L 910.140625 241.109375 C 907.753906 239.875 884.496094 239.875 882.113281 241.109375 L 880.5 241.941406 L 882.152344 242.949219 C 883.058594 243.5 884.398438 243.953125 885.128906 243.953125 C 886.542969 243.953125 889.03125 246.058594 889.03125 247.257812 C 889.03125 249.035156 885.574219 254.113281 869.195312 276.375 C 859.585938 289.433594 851.726562 300.292969 851.726562 300.507812 C 851.726562 300.722656 851.175781 301.632812 850.503906 302.527344 C 849.835938 303.421875 849.125 304.585938 848.929688 305.117188 C 848.070312 307.445312 849.175781 309.320312 825.03125 264.609375 C 818.90625 253.269531 813.894531 243.746094 813.894531 243.445312 C 813.894531 243.085938 817.757812 242.902344 825.230469 242.902344 C 835.742188 242.902344 836.554688 242.835938 836.386719 241.980469 C 836.21875 241.117188 834.121094 241.0625 801.015625 241.078125 C 766.332031 241.089844 765.820312 241.105469 765.820312 242.128906 C 765.820312 243.121094 766.265625 243.171875 776.398438 243.308594 L 786.980469 243.449219 L 789.597656 248.039062 C 792.554688 253.21875 831.585938 326.453125 831.851562 327.320312 C 831.945312 327.625 828.71875 332.359375 824.679688 337.835938 C 820.644531 343.3125 811.417969 355.835938 804.179688 365.667969 C 784.972656 391.757812 786.800781 389.6875 778.167969 395.160156 C 776.402344 396.277344 772.910156 397.335938 772.910156 396.753906 C 772.910156 396.601562 774.664062 394.722656 776.808594 392.578125 C 780.210938 389.171875 782.894531 385.085938 782.894531 383.308594 C 782.894531 382.242188 782.167969 382.789062 777.164062 387.632812 C 771.992188 392.636719 769.679688 393.9375 766.902344 393.40625 C 764.996094 393.039062 762.773438 390.148438 761.636719 386.5625 C 759.105469 378.5625 759.113281 378.753906 758.882812 308.367188 C 758.6875 248.609375 758.582031 242.039062 757.824219 241.203125 C 757.046875 240.339844 755.316406 240.277344 733.292969 240.332031 C 716.527344 240.375 707.90625 240.605469 703.816406 241.121094 M 254.835938 241.824219 L 254.835938 243.015625 L 263.390625 242.636719 C 270.597656 242.316406 272.046875 242.378906 272.589844 243.03125 C 273.085938 243.632812 273.199219 260.808594 273.09375 320.507812 L 272.960938 397.214844 L 261.273438 397.355469 C 250.847656 397.480469 249.582031 397.589844 249.582031 398.359375 C 249.582031 399.140625 250.546875 399.1875 259.910156 398.875 C 265.59375 398.683594 281.140625 398.472656 294.457031 398.40625 C 307.777344 398.339844 313.726562 398.21875 307.679688 398.132812 C 300.671875 398.035156 296.4375 397.769531 295.992188 397.402344 C 295.417969 396.925781 295.292969 383.046875 295.292969 319.074219 L 295.292969 241.324219 L 281.453125 241.324219 C 273.839844 241.324219 264.734375 241.171875 261.222656 240.980469 C 254.839844 240.636719 254.835938 240.636719 254.835938 241.824219 M 724.570312 244.503906 C 708.414062 245.265625 697 248.839844 684.640625 257.007812 C 672.261719 265.1875 661.488281 280.53125 655.671875 298.25 C 647.027344 324.597656 648.355469 356.273438 658.976562 377.058594 C 666.703125 392.179688 676.261719 397.957031 691.035156 396.441406 C 697.597656 395.765625 701.71875 394.71875 706.445312 392.515625 C 714.121094 388.9375 718.898438 384.101562 723.53125 375.226562 C 727.789062 367.066406 730.761719 355.5625 732.519531 340.429688 C 733.242188 334.210938 733.835938 243.90625 733.152344 244.039062 C 732.914062 244.082031 729.050781 244.292969 724.570312 244.503906 M 56.5625 251.886719 C 55.476562 253.441406 55.46875 254.4375 56.535156 255.960938 C 57.714844 257.648438 59.21875 258.101562 66.441406 258.945312 C 74.433594 259.882812 81.734375 261.769531 87.59375 264.421875 C 90.109375 265.558594 92.359375 266.371094 92.585938 266.230469 C 94.121094 265.28125 87.382812 259.929688 80.128906 256.328125 C 74.238281 253.40625 67.386719 251.410156 61.753906 250.976562 C 57.625 250.660156 57.390625 250.703125 56.5625 251.886719 M 57.800781 265.769531 C 55.25 269.222656 53.820312 270.242188 50.972656 270.621094 C 49.800781 270.78125 48.730469 271.089844 48.59375 271.308594 C 48.246094 271.871094 52.117188 275.261719 54.503906 276.480469 C 60.117188 279.34375 68.625 280.167969 74.257812 278.398438 C 79.332031 276.800781 79.472656 275.324219 74.613281 274.699219 C 67.964844 273.847656 59.375 270.835938 59.375 269.359375 C 59.375 268.953125 59.847656 267.695312 60.425781 266.5625 C 62.722656 262.058594 60.9375 261.519531 57.800781 265.769531 M 41.496094 282.980469 C 37.824219 285.214844 31.757812 289.339844 30.613281 290.375 C 29.113281 291.738281 28.585938 294.503906 29.4375 296.566406 C 30.105469 298.171875 34.550781 301.945312 37.671875 303.550781 C 39.707031 304.597656 39.933594 304.613281 39.933594 303.722656 C 39.933594 303.339844 38.398438 301.796875 36.523438 300.292969 C 30.398438 295.382812 30.242188 293.804688 35.554688 290.40625 C 37.203125 289.351562 39.128906 287.871094 39.832031 287.117188 C 41.8125 285 43.78125 282.328125 43.539062 282.085938 C 43.417969 281.96875 42.5 282.367188 41.496094 282.980469 M 43.246094 340.292969 C 42.589844 341.152344 40.453125 350.976562 40.457031 353.113281 C 40.460938 356.261719 41.128906 358.058594 43.136719 360.34375 C 44.25 361.609375 46.003906 363.042969 47.03125 363.53125 C 49.226562 364.574219 61.332031 365.714844 78.027344 366.449219 C 89.367188 366.949219 93.242188 367.601562 97.445312 369.71875 C 104.839844 373.445312 109.804688 381.5625 109.824219 389.96875 C 109.839844 396.429688 112.03125 396.332031 112.726562 389.839844 C 113.171875 385.675781 112.050781 379.832031 110.003906 375.648438 C 108.097656 371.753906 103.351562 367.0625 98.972656 364.75 L 95.523438 362.929688 L 99.125 361.5 C 105.480469 358.96875 115.070312 352.28125 115.070312 350.375 C 115.070312 349.234375 114.160156 349.46875 110.882812 351.460938 C 104.6875 355.230469 96.597656 358 88.722656 359.058594 C 82.257812 359.921875 66.542969 360.261719 58.585938 359.703125 C 50.71875 359.152344 46.832031 358.035156 45.75 356.011719 C 45.429688 355.414062 45.1875 351.90625 45.1875 347.890625 C 45.1875 342.554688 45.011719 340.675781 44.46875 340.226562 C 43.929688 339.777344 43.625 339.792969 43.246094 340.292969 M 313.777344 408.554688 C 289.820312 415.664062 273.3125 425.210938 266.359375 435.972656 C 263.042969 441.109375 262.011719 444.355469 261.96875 449.824219 C 261.933594 454.132812 262.082031 454.890625 263.511719 457.6875 C 266.4375 463.421875 271.25 465.824219 279.804688 465.824219 C 290.878906 465.824219 301.011719 461.027344 307.207031 452.847656 C 314.027344 443.84375 318.664062 431.4375 321.535156 414.503906 C 322.847656 406.761719 322.855469 406.40625 321.695312 406.445312 C 321.191406 406.460938 317.628906 407.410156 313.777344 408.554688 M 379.492188 426.238281 L 378.3125 426.464844 L 378.3125 462.671875 L 384.78125 462.671875 C 392.296875 462.671875 396.492188 462.011719 399.832031 460.308594 C 402.644531 458.875 404 456.800781 404.378906 453.347656 C 404.804688 449.46875 403.085938 446.589844 399.121094 444.550781 C 397.417969 443.671875 396.027344 442.71875 396.03125 442.429688 C 396.035156 442.140625 397.105469 441.351562 398.410156 440.679688 C 401.589844 439.042969 402.714844 436.90625 402.359375 433.199219 C 402.132812 430.832031 401.816406 430.148438 400.402344 428.96875 C 397.78125 426.777344 393.609375 425.855469 386.683594 425.9375 C 383.378906 425.976562 380.144531 426.113281 379.492188 426.238281 M 615.9375 426.238281 L 614.757812 426.464844 L 614.757812 462.144531 L 618.433594 462.144531 L 618.433594 455.152344 C 618.433594 450.78125 618.652344 447.945312 619.011719 447.582031 C 619.359375 447.234375 620.761719 447.109375 622.558594 447.261719 C 626.382812 447.59375 632.574219 446.28125 635.617188 444.496094 C 638.417969 442.855469 639.949219 439.964844 639.964844 436.285156 C 640 428.871094 635.039062 425.800781 623.238281 425.9375 C 619.875 425.976562 616.589844 426.113281 615.9375 426.238281 M 686.347656 426.238281 L 685.164062 426.464844 L 685.164062 462.144531 L 688.84375 462.144531 L 688.84375 454.625 C 688.84375 449.480469 689.042969 446.910156 689.472656 446.476562 C 690.242188 445.707031 695.738281 445.652344 698.378906 446.386719 C 701.652344 447.296875 703.796875 450.277344 705.722656 456.601562 L 707.410156 462.144531 L 709.480469 462.144531 C 711.242188 462.144531 711.492188 462.007812 711.175781 461.226562 C 710.972656 460.71875 710.21875 458.300781 709.5 455.855469 C 707.796875 450.054688 706.839844 448.28125 704.605469 446.777344 C 703.59375 446.097656 702.792969 445.3125 702.828125 445.035156 C 702.859375 444.757812 703.992188 443.960938 705.347656 443.265625 C 708.675781 441.550781 710.023438 439.523438 710.257812 435.890625 C 710.71875 428.628906 706.082031 425.820312 693.835938 425.945312 C 690.367188 425.980469 686.996094 426.113281 686.347656 426.238281 M 760.300781 426.589844 C 751.863281 428.914062 747.457031 434.433594 746.808594 443.480469 C 746.355469 449.8125 749.109375 456.300781 753.472656 459.191406 C 757.394531 461.789062 761.585938 462.8125 767.132812 462.53125 C 775.136719 462.121094 780.222656 459.578125 783.203125 454.488281 C 786.09375 449.558594 786.765625 443.511719 785.039062 437.964844 C 783.167969 431.953125 779.625 428.503906 773.472656 426.703125 C 770.117188 425.722656 763.65625 425.664062 760.300781 426.589844 M 840.296875 426.238281 L 839.117188 426.464844 L 839.117188 462.144531 L 842.792969 462.144531 L 842.792969 454.625 C 842.792969 449.480469 842.992188 446.910156 843.425781 446.476562 C 844.195312 445.707031 849.6875 445.652344 852.332031 446.386719 C 855.605469 447.296875 857.75 450.277344 859.675781 456.601562 L 861.363281 462.144531 L 863.433594 462.144531 C 865.191406 462.144531 865.445312 462.007812 865.128906 461.226562 C 864.925781 460.71875 864.171875 458.300781 863.453125 455.855469 C 861.75 450.054688 860.792969 448.28125 858.558594 446.777344 C 857.546875 446.097656 856.746094 445.3125 856.777344 445.035156 C 856.8125 444.757812 857.945312 443.960938 859.296875 443.265625 C 862.625 441.550781 863.976562 439.523438 864.207031 435.890625 C 864.671875 428.628906 860.035156 425.820312 847.785156 425.945312 C 844.316406 425.980469 840.949219 426.113281 840.296875 426.238281 M 414.566406 444.269531 L 414.566406 462.144531 L 426.125 462.144531 C 437.335938 462.144531 437.6875 462.113281 437.6875 461.09375 C 437.6875 460.082031 437.335938 460.042969 428.59375 460.042969 C 422.226562 460.042969 419.316406 459.851562 418.875 459.410156 C 418.453125 458.988281 418.246094 456.605469 418.246094 452.15625 C 418.246094 447.703125 418.453125 445.324219 418.875 444.898438 C 419.3125 444.464844 421.992188 444.269531 427.542969 444.269531 C 435.234375 444.269531 435.582031 444.222656 435.582031 443.21875 C 435.582031 442.210938 435.234375 442.167969 427.542969 442.167969 C 421.992188 442.167969 419.3125 441.972656 418.875 441.535156 C 418.464844 441.125 418.246094 438.964844 418.246094 435.332031 C 418.246094 431.699219 418.464844 429.539062 418.875 429.128906 C 419.3125 428.6875 422.109375 428.496094 428.070312 428.496094 C 436.285156 428.496094 436.632812 428.453125 436.632812 427.445312 C 436.632812 426.425781 436.285156 426.394531 425.601562 426.394531 L 414.566406 426.394531 L 414.566406 444.269531 M 457.628906 427.769531 C 457.339844 428.53125 454.152344 436.449219 450.546875 445.367188 C 446.941406 454.289062 443.992188 461.714844 443.992188 461.867188 C 443.992188 462.019531 444.882812 462.144531 445.976562 462.144531 L 447.960938 462.144531 L 449.714844 457.40625 C 452.53125 449.796875 452.140625 450.050781 461.042969 450.050781 C 467.285156 450.050781 468.679688 450.195312 469.277344 450.894531 C 469.675781 451.359375 470.945312 454.019531 472.105469 456.808594 L 474.210938 461.882812 L 476.414062 462.042969 L 478.621094 462.203125 L 471.421875 444.308594 L 464.21875 426.414062 L 461.1875 426.402344 C 458.390625 426.394531 458.109375 426.503906 457.628906 427.769531 M 486.027344 439.253906 C 486.027344 450.933594 486.125 452.382812 487.101562 454.996094 C 489.0625 460.238281 493.503906 462.671875 501.109375 462.671875 C 508.503906 462.671875 513.417969 459.835938 515.449219 454.398438 C 516.394531 451.878906 516.5 450.296875 516.5 438.992188 L 516.5 426.394531 L 512.890625 426.394531 L 512.726562 439.160156 C 512.5625 451.660156 512.53125 451.980469 511.21875 454.53125 C 510.40625 456.109375 508.984375 457.765625 507.625 458.722656 C 505.589844 460.15625 504.988281 460.304688 501.261719 460.304688 C 497.539062 460.304688 496.9375 460.15625 494.902344 458.722656 C 493.539062 457.765625 492.121094 456.109375 491.308594 454.53125 C 489.992188 451.980469 489.964844 451.660156 489.800781 439.160156 L 489.636719 426.394531 L 486.027344 426.394531 L 486.027344 439.253906 M 523.855469 427.445312 C 523.855469 428.4375 524.207031 428.496094 530.058594 428.496094 C 534.179688 428.496094 536.46875 428.707031 536.886719 429.128906 C 537.351562 429.589844 537.519531 434.058594 537.519531 445.953125 L 537.519531 462.144531 L 541.195312 462.144531 L 541.195312 445.953125 C 541.195312 434.058594 541.363281 429.589844 541.828125 429.128906 C 542.246094 428.707031 544.535156 428.496094 548.65625 428.496094 C 554.507812 428.496094 554.855469 428.4375 554.855469 427.445312 C 554.855469 426.417969 554.507812 426.394531 539.355469 426.394531 C 524.207031 426.394531 523.855469 426.417969 523.855469 427.445312 M 560.976562 427.050781 C 561.195312 427.414062 564.28125 432.152344 567.835938 437.585938 L 574.296875 447.46875 L 574.296875 462.144531 L 577.976562 462.144531 L 577.992188 447.160156 L 584.59375 437.695312 C 593.164062 425.414062 592.699219 426.394531 589.933594 426.394531 L 587.667969 426.394531 L 582.71875 434.675781 C 579.996094 439.230469 577.441406 443.308594 577.042969 443.742188 C 576.121094 444.742188 576.1875 444.828125 570.050781 434.410156 L 565.328125 426.394531 L 562.953125 426.394531 C 561.1875 426.394531 560.679688 426.5625 560.976562 427.050781 M 654.664062 427.769531 C 654.378906 428.53125 651.191406 436.449219 647.585938 445.367188 C 643.976562 454.289062 641.027344 461.714844 641.027344 461.867188 C 641.027344 462.019531 641.921875 462.144531 643.011719 462.144531 L 644.996094 462.144531 L 646.753906 457.40625 C 649.570312 449.796875 649.179688 450.050781 658.078125 450.050781 C 664.324219 450.050781 665.714844 450.195312 666.316406 450.894531 C 666.710938 451.359375 667.984375 454.019531 669.140625 456.808594 L 671.25 461.882812 L 675.65625 462.203125 L 661.257812 426.414062 L 658.222656 426.402344 C 655.429688 426.394531 655.148438 426.503906 654.664062 427.769531 M 720.894531 444.269531 L 720.894531 462.144531 L 732.453125 462.144531 C 743.664062 462.144531 744.011719 462.113281 744.011719 461.09375 C 744.011719 460.082031 743.664062 460.042969 734.921875 460.042969 C 728.554688 460.042969 725.644531 459.851562 725.203125 459.410156 C 724.738281 458.949219 724.570312 454.480469 724.570312 442.585938 L 724.570312 426.394531 L 720.894531 426.394531 L 720.894531 444.269531 M 796.03125 439.253906 C 796.03125 450.933594 796.128906 452.382812 797.109375 454.996094 C 799.066406 460.238281 803.507812 462.671875 811.113281 462.671875 C 818.507812 462.671875 823.421875 459.835938 825.457031 454.398438 C 826.398438 451.878906 826.507812 450.296875 826.507812 438.992188 L 826.507812 426.394531 L 822.894531 426.394531 L 822.730469 439.160156 C 822.566406 451.660156 822.539062 451.980469 821.222656 454.53125 C 820.410156 456.109375 818.992188 457.765625 817.632812 458.722656 C 815.59375 460.15625 814.992188 460.304688 811.269531 460.304688 C 807.542969 460.304688 806.941406 460.15625 804.90625 458.722656 C 803.546875 457.765625 802.125 456.109375 801.3125 454.53125 C 800 451.980469 799.96875 451.660156 799.804688 439.160156 L 799.640625 426.394531 L 796.03125 426.394531 L 796.03125 439.253906 M 383.699219 428.808594 C 383.226562 429.023438 383.039062 430.832031 383.039062 435.175781 L 383.039062 441.242188 L 387.921875 441.027344 C 391.769531 440.859375 393.191406 440.570312 394.660156 439.664062 C 398.890625 437.046875 398.792969 431.980469 394.46875 429.742188 C 392.828125 428.894531 385 428.214844 383.699219 428.808594 M 621.179688 428.851562 L 619.457031 429.089844 L 619.601562 436.546875 L 619.75 444.007812 L 624.476562 444 C 628.285156 443.996094 629.5625 443.789062 631.042969 442.921875 C 636.527344 439.710938 636.679688 432.65625 631.320312 430.09375 C 629.125 429.042969 624.167969 428.4375 621.179688 428.851562 M 691.074219 428.867188 C 689.917969 429.089844 689.894531 429.25 689.894531 436.21875 L 689.894531 443.339844 L 695.027344 443.132812 C 699.25 442.964844 700.511719 442.710938 702.132812 441.707031 C 707.460938 438.414062 706.625 431.488281 700.652344 429.441406 C 698.214844 428.601562 693.8125 428.339844 691.074219 428.867188 M 845.027344 428.867188 C 843.871094 429.089844 843.84375 429.25 843.84375 436.21875 L 843.84375 443.339844 L 848.980469 443.132812 C 853.203125 442.964844 854.460938 442.710938 856.085938 441.707031 C 861.414062 438.414062 860.578125 431.488281 854.605469 429.441406 C 852.164062 428.601562 847.765625 428.339844 845.027344 428.867188 M 760.300781 430.117188 C 757.21875 431.511719 755.269531 433.40625 753.574219 436.644531 C 752.375 438.933594 752.195312 439.921875 752.175781 444.269531 C 752.160156 448.6875 752.320312 449.566406 753.554688 451.894531 C 756.332031 457.125 760.308594 459.484375 766.382812 459.503906 C 769.40625 459.515625 770.625 459.25 772.945312 458.070312 C 778.222656 455.390625 781.164062 449.554688 780.671875 442.730469 C 780.066406 434.339844 774.523438 429.046875 766.34375 429.046875 C 763.769531 429.046875 761.957031 429.367188 760.300781 430.117188 M 460.628906 430.425781 C 460.4375 430.617188 460.277344 431.113281 460.277344 431.53125 C 460.277344 431.945312 458.980469 435.589844 457.390625 439.628906 C 455.800781 443.671875 454.5 447.078125 454.5 447.199219 C 454.5 447.324219 457.453125 447.421875 461.066406 447.421875 C 464.679688 447.421875 467.636719 447.316406 467.636719 447.1875 C 467.636719 447.054688 466.601562 444.394531 465.335938 441.269531 C 464.070312 438.148438 462.632812 434.351562 462.140625 432.832031 C 461.191406 429.90625 461.175781 429.878906 460.628906 430.425781 M 657.667969 430.425781 C 657.472656 430.617188 657.316406 431.113281 657.316406 431.53125 C 657.316406 431.945312 656.015625 435.589844 654.425781 439.628906 C 652.835938 443.671875 651.535156 447.078125 651.535156 447.199219 C 651.535156 447.324219 654.492188 447.421875 658.105469 447.421875 C 661.71875 447.421875 664.671875 447.316406 664.671875 447.1875 C 664.671875 447.054688 663.636719 444.394531 662.371094 441.269531 C 661.105469 438.148438 659.667969 434.351562 659.175781 432.832031 C 658.230469 429.90625 658.210938 429.878906 657.667969 430.425781 M 383.15625 452.285156 L 383.304688 459.777344 L 386.371094 459.9375 C 391.394531 460.199219 395.058594 459.179688 397.351562 456.886719 C 399.0625 455.175781 399.328125 454.582031 399.328125 452.5 C 399.328125 447.59375 394.804688 444.796875 386.871094 444.796875 L 383.011719 444.796875 L 383.15625 452.285156 "/>
</g>
</svg>
