<?xml version="1.0" encoding="UTF-8"?>
<svg xmlns="http://www.w3.org/2000/svg" xmlns:xlink="http://www.w3.org/1999/xlink" width="300px" height="30px" viewBox="0 0 300 30" version="1.1">
<g id="surface1">
<path style=" stroke:none;fill-rule:evenodd;fill:rgb(85.490197%,70.980394%,29.411766%);fill-opacity:1;" d="M 238.046875 1.363281 C 237.046875 1.535156 235.082031 2.011719 233.726562 2.414062 C 231.359375 3.113281 229.527344 3.96875 228.644531 4.777344 C 228.027344 5.34375 228.117188 5.488281 229.128906 5.570312 C 229.769531 5.621094 230.753906 5.582031 230.996094 5.492188 C 231.078125 5.460938 231.339844 5.253906 231.570312 5.03125 C 232.640625 4 235.046875 3.011719 238.394531 2.230469 C 239.300781 2.015625 239.316406 2.015625 239.648438 2.070312 C 240.230469 2.171875 242.347656 2.742188 243.269531 3.042969 C 247.664062 4.496094 248.863281 6.273438 246.578125 7.945312 C 245.570312 8.683594 243.757812 9.425781 241.511719 10.027344 C 240.902344 10.1875 240.871094 10.191406 240.570312 10.140625 C 240.398438 10.109375 240.257812 10.050781 240.257812 10.007812 C 240.257812 9.855469 239.417969 9.203125 238.695312 8.792969 C 237 7.832031 234.28125 6.953125 230.707031 6.210938 C 227.117188 5.46875 221.746094 4.785156 216.640625 4.429688 C 213.277344 4.195312 208.878906 4.039062 205.683594 4.039062 C 204.148438 4.039062 204.070312 4.042969 203.746094 4.121094 C 203.4375 4.195312 203.410156 4.246094 203.410156 4.6875 C 203.410156 5.292969 203.886719 5.828125 205.015625 6.492188 C 205.929688 7.03125 206.890625 7.445312 208.316406 7.910156 C 209.679688 8.355469 210.011719 8.421875 210.871094 8.421875 C 211.734375 8.421875 212.082031 8.386719 212.335938 8.265625 C 212.617188 8.132812 212.453125 8.011719 211.71875 7.800781 C 208.902344 6.988281 206.910156 5.917969 206.402344 4.945312 C 206.25 4.648438 206.371094 4.625 207.929688 4.652344 C 209.789062 4.6875 212.613281 4.808594 214.8125 4.953125 C 225.679688 5.65625 234.226562 7.503906 236.78125 9.691406 C 237.492188 10.296875 237.382812 10.320312 235.167969 10.03125 C 230.753906 9.457031 225.644531 9.074219 220.125 8.90625 C 217.535156 8.828125 212.011719 8.828125 209.414062 8.90625 C 204.507812 9.054688 200.050781 9.363281 195.964844 9.835938 C 192.785156 10.207031 189.261719 10.773438 189.035156 10.953125 C 188.828125 11.117188 189.105469 11.207031 190.796875 11.53125 C 195.234375 12.378906 202.449219 13.03125 209.667969 13.238281 C 212.339844 13.3125 217.257812 13.3125 219.886719 13.234375 C 222.53125 13.160156 225.753906 12.996094 228.019531 12.824219 C 230.253906 12.65625 233.050781 12.378906 233.5625 12.28125 C 233.933594 12.210938 234.03125 12.078125 233.824219 11.929688 C 233.714844 11.851562 233.007812 11.765625 232.441406 11.765625 C 232.238281 11.765625 231.082031 11.863281 229.875 11.984375 C 224.671875 12.5 220.527344 12.691406 214.773438 12.691406 C 211.128906 12.691406 209.621094 12.65625 206.34375 12.492188 C 201.828125 12.261719 196.722656 11.746094 193.757812 11.222656 L 192.792969 11.050781 L 193.921875 10.871094 C 203.707031 9.289062 217.925781 8.980469 229.4375 10.097656 C 232.769531 10.421875 234.957031 10.726562 238.210938 11.320312 C 241.980469 12.011719 245.332031 12.433594 249.875 12.796875 C 254.550781 13.167969 258.449219 13.316406 263.71875 13.316406 C 272.066406 13.320312 279.359375 12.855469 285.945312 11.894531 C 289.4375 11.386719 290.261719 11.203125 290.003906 10.988281 C 289.859375 10.867188 288.730469 10.644531 286.769531 10.347656 C 282.457031 9.695312 278.238281 9.285156 273.308594 9.039062 C 268.992188 8.820312 267.945312 8.828125 267.539062 9.066406 C 267.324219 9.191406 267.515625 9.363281 267.945312 9.433594 C 268.074219 9.453125 269.035156 9.503906 270.085938 9.546875 C 276.023438 9.78125 280.746094 10.222656 285.453125 10.984375 L 285.921875 11.0625 L 284.722656 11.25 C 277.058594 12.46875 266.722656 12.960938 257.023438 12.570312 C 252.433594 12.382812 248.113281 12.023438 244.503906 11.523438 C 243.667969 11.40625 243.515625 11.375 243.695312 11.34375 C 243.8125 11.320312 244.921875 11.265625 246.152344 11.21875 C 254.359375 10.914062 262.183594 10.007812 267.257812 8.785156 C 272.363281 7.554688 275.089844 6.1875 275.582031 4.621094 C 275.671875 4.328125 275.648438 4.253906 275.425781 4.171875 C 275 4.011719 274.6875 3.996094 272.414062 4.015625 C 267.242188 4.0625 262.101562 4.328125 257.550781 4.789062 C 255.136719 5.035156 252.847656 5.324219 252.53125 5.429688 C 252.148438 5.554688 252.207031 5.691406 252.691406 5.800781 C 253.039062 5.882812 253.230469 5.898438 253.789062 5.898438 C 254.347656 5.898438 254.746094 5.863281 256.085938 5.691406 C 258.132812 5.429688 261.421875 5.117188 263.636719 4.972656 C 267.09375 4.75 271.996094 4.589844 272.199219 4.695312 C 272.308594 4.75 271.992188 5.261719 271.65625 5.578125 C 269.015625 8.0625 258.511719 10.105469 245.746094 10.617188 C 244.023438 10.6875 243.753906 10.691406 243.546875 10.652344 C 243.335938 10.613281 243.390625 10.585938 243.960938 10.4375 C 247.359375 9.558594 249.957031 8.21875 250.640625 6.996094 C 251.671875 5.152344 248.605469 3.171875 242.507812 1.75 C 240.746094 1.339844 240.246094 1.261719 239.367188 1.261719 C 238.789062 1.261719 238.53125 1.28125 238.046875 1.363281 M 115.398438 9.984375 C 109.394531 10.207031 104.484375 11.066406 102.289062 12.28125 C 101.40625 12.769531 101.117188 13.109375 101.019531 13.777344 L 100.933594 14.382812 L 97.441406 14.390625 C 94.320312 14.398438 93.929688 14.40625 93.769531 14.457031 C 93.636719 14.496094 93.636719 14.527344 93.769531 14.566406 C 93.929688 14.617188 94.320312 14.621094 97.460938 14.628906 L 100.972656 14.636719 L 100.972656 18.226562 C 100.972656 21.503906 100.816406 23.402344 100.519531 23.847656 L 100.40625 24.015625 L 98.316406 24.121094 C 87.738281 24.652344 80.664062 25.609375 79.382812 26.683594 C 79.050781 26.960938 79.234375 27.308594 79.84375 27.550781 C 80.503906 27.808594 81.929688 28.074219 83.234375 28.175781 C 84.09375 28.242188 84.398438 28.25 86.933594 28.246094 C 89.375 28.246094 89.875 28.234375 91.289062 28.160156 C 101.089844 27.652344 107.164062 25.671875 108.4375 22.574219 C 108.539062 22.324219 108.605469 20.703125 108.605469 18.402344 L 108.605469 14.636719 L 110.375 14.636719 C 111.765625 14.636719 112.257812 14.625 112.648438 14.582031 C 112.921875 14.550781 113.148438 14.519531 113.148438 14.511719 C 113.148438 14.503906 112.921875 14.46875 112.648438 14.441406 C 112.253906 14.398438 111.765625 14.386719 110.355469 14.386719 L 108.566406 14.386719 L 108.652344 13.476562 C 108.742188 12.496094 108.855469 12.332031 109.761719 11.84375 C 110.90625 11.230469 112.925781 10.769531 115.617188 10.503906 C 117.976562 10.277344 120.410156 10.230469 122.386719 10.375 C 123.445312 10.453125 123.796875 10.511719 124.035156 10.652344 C 124.3125 10.8125 124 10.925781 122.796875 11.089844 C 120.835938 11.363281 120.292969 11.554688 120.632812 11.863281 C 120.984375 12.179688 122.496094 12.40625 124.269531 12.40625 C 125.492188 12.40625 126.355469 12.328125 127.179688 12.140625 C 127.996094 11.953125 128.300781 11.730469 128.214844 11.390625 C 128.125 11.054688 127.734375 10.894531 126.253906 10.582031 C 124.269531 10.167969 121.894531 9.972656 118.585938 9.949219 C 117.308594 9.941406 116.210938 9.953125 115.398438 9.984375 M 46.914062 10.433594 C 41.789062 10.511719 36.136719 10.917969 33.507812 11.398438 C 33.175781 11.460938 32.851562 11.503906 32.792969 11.5 C 32.632812 11.480469 29.503906 11.824219 27.773438 12.046875 C 25.058594 12.402344 22.292969 12.894531 20.925781 13.265625 C 20.621094 13.347656 20.371094 13.421875 20.371094 13.433594 C 20.371094 13.445312 20.308594 13.472656 20.238281 13.492188 C 20.167969 13.515625 20.152344 13.53125 20.207031 13.53125 C 20.257812 13.53125 20.183594 13.578125 20.042969 13.628906 C 19.773438 13.730469 19.75 13.734375 22.726562 13.140625 C 24.101562 12.867188 25.957031 12.609375 28.285156 12.367188 L 29.867188 12.203125 L 29.222656 12.464844 C 27.460938 13.183594 27.140625 14.160156 28.425781 14.90625 C 29.597656 15.585938 32.007812 16.160156 35.714844 16.636719 C 40.03125 17.195312 42.027344 17.375 52.027344 18.105469 C 60.484375 18.722656 63.464844 18.984375 66.308594 19.351562 C 68.675781 19.65625 70.792969 20.101562 71.417969 20.421875 C 71.507812 20.46875 71.742188 20.574219 71.9375 20.65625 C 72.207031 20.769531 72.3125 20.882812 72.367188 21.136719 C 72.65625 22.433594 67.972656 23.433594 59.660156 23.847656 C 56.109375 24.027344 52.765625 24.074219 48.878906 24.003906 C 47.339844 23.976562 46.992188 23.976562 46.804688 24.015625 C 46.605469 24.054688 46.605469 24.0625 46.804688 24.097656 C 47.507812 24.210938 54.425781 24.222656 57.953125 24.117188 C 66.574219 23.859375 72.773438 23.117188 75.480469 22.015625 C 76.613281 21.554688 76.847656 21.328125 76.847656 20.695312 C 76.847656 20.222656 76.796875 20.105469 76.488281 19.890625 C 76.027344 19.566406 75.066406 19.191406 73.984375 18.914062 C 73.515625 18.796875 73.046875 18.667969 72.9375 18.628906 C 72.464844 18.464844 69.457031 18.003906 67.019531 17.722656 C 63.765625 17.347656 60.605469 17.074219 52.355469 16.464844 C 45.957031 15.992188 44.90625 15.910156 42.097656 15.640625 C 34.632812 14.929688 31.488281 14.144531 31.898438 13.097656 C 32.386719 11.835938 36.5 11.039062 44.125 10.722656 C 46.417969 10.628906 50.472656 10.609375 52.984375 10.675781 C 57.902344 10.808594 62.003906 11.125 63.796875 11.503906 C 64.636719 11.679688 64.972656 11.832031 64.992188 12.039062 C 65.003906 12.203125 65.015625 12.199219 63.335938 12.824219 C 62.128906 13.273438 62.242188 13.582031 63.714844 13.867188 C 65.597656 14.234375 68.707031 14.28125 70.523438 13.96875 C 72.765625 13.585938 72.730469 12.777344 70.441406 12.09375 C 69.625 11.851562 67.667969 11.484375 66.152344 11.289062 C 61.238281 10.660156 53.796875 10.328125 46.914062 10.433594 M 83.554688 11.453125 C 83.328125 11.488281 83.054688 11.566406 82.953125 11.625 C 82.601562 11.832031 82.832031 11.90625 85.277344 12.390625 C 86.53125 12.636719 87.613281 12.839844 87.679688 12.839844 C 87.839844 12.839844 91.480469 12.113281 91.976562 11.984375 C 92.703125 11.792969 92.382812 11.492188 91.375 11.421875 C 90.59375 11.371094 90.328125 11.378906 88.921875 11.5 L 87.625 11.617188 L 86.378906 11.5 C 84.957031 11.371094 84.167969 11.359375 83.554688 11.453125 M 138.90625 14.230469 C 136.035156 14.324219 132.992188 14.621094 130.691406 15.035156 L 129.707031 15.210938 L 129.707031 14.832031 C 129.707031 14.570312 129.648438 14.445312 129.503906 14.425781 C 129.382812 14.40625 126.738281 14.386719 123.023438 14.375 L 116.742188 14.351562 L 116.171875 14.425781 C 115.855469 14.464844 115.597656 14.503906 115.597656 14.511719 C 115.597656 14.519531 115.867188 14.558594 116.199219 14.601562 C 116.78125 14.675781 116.882812 14.675781 119.359375 14.664062 L 121.914062 14.648438 L 121.914062 23.753906 L 118.53125 23.753906 C 115.460938 23.753906 115.121094 23.757812 114.878906 23.8125 C 114.539062 23.886719 114.539062 23.921875 114.894531 23.984375 C 115.152344 24.027344 116.230469 24.03125 125.875 24.011719 C 135.671875 23.992188 136.585938 23.984375 136.746094 23.9375 C 136.878906 23.894531 136.847656 23.867188 136.617188 23.820312 C 136.328125 23.757812 136.136719 23.753906 133.011719 23.753906 L 129.707031 23.753906 L 129.707031 15.496094 L 130.761719 15.304688 C 132.660156 14.960938 134.738281 14.722656 136.964844 14.597656 C 138.675781 14.503906 142.804688 14.496094 144.5625 14.585938 C 147.210938 14.722656 149.019531 14.945312 150.097656 15.269531 C 151.582031 15.714844 152 16.066406 151.996094 16.859375 C 151.992188 17.644531 151.636719 18.144531 149.816406 19.9375 C 148.574219 21.15625 148.226562 21.609375 148.109375 22.160156 C 147.945312 22.917969 148.53125 23.339844 150.242188 23.6875 C 151.730469 23.992188 153.367188 24.101562 156.398438 24.101562 C 159.5 24.101562 161.667969 23.917969 164.050781 23.457031 C 165.589844 23.15625 166.152344 22.980469 165.734375 22.933594 C 165.574219 22.914062 165.140625 22.976562 164.191406 23.15625 C 162.492188 23.476562 161.28125 23.597656 159.695312 23.597656 C 157.949219 23.597656 157.074219 23.503906 156.414062 23.25 C 155.867188 23.039062 155.683594 22.816406 155.683594 22.382812 C 155.683594 21.789062 155.941406 21.441406 157.636719 19.757812 C 158.929688 18.46875 159.261719 18.023438 159.363281 17.429688 C 159.460938 16.84375 159.21875 16.472656 158.460938 16.054688 L 157.984375 15.796875 L 158.558594 15.632812 C 159.167969 15.460938 160.378906 15.203125 160.578125 15.203125 C 160.644531 15.203125 161.195312 15.132812 161.800781 15.042969 C 164.648438 14.621094 168.363281 14.429688 171.996094 14.507812 C 177.25 14.625 179.941406 15.039062 181.207031 15.921875 C 181.519531 16.140625 181.558594 16.246094 181.5625 16.878906 C 181.5625 17.722656 181.355469 18.039062 179.78125 19.597656 C 178.128906 21.226562 177.902344 21.519531 177.804688 22.164062 C 177.734375 22.625 177.769531 22.78125 177.984375 22.96875 C 178.867188 23.734375 181.414062 24.097656 185.933594 24.101562 C 188.835938 24.101562 191.109375 23.921875 193.355469 23.507812 C 194.0625 23.378906 194.644531 23.261719 194.644531 23.246094 C 194.644531 23.226562 194.800781 23.175781 194.988281 23.125 C 195.191406 23.070312 195.292969 23.011719 195.234375 22.980469 C 195.148438 22.9375 194.917969 22.964844 194.035156 23.125 C 191.96875 23.492188 190.875 23.601562 189.203125 23.601562 C 188.199219 23.605469 187.183594 23.542969 186.636719 23.445312 C 185.253906 23.203125 184.851562 22.476562 185.558594 21.496094 C 185.746094 21.238281 186.40625 20.523438 187.027344 19.90625 C 188.421875 18.519531 188.777344 18.058594 188.90625 17.476562 C 189.066406 16.738281 188.648438 16.28125 187.339844 15.753906 C 185.691406 15.09375 182.703125 14.636719 178.511719 14.402344 C 175.261719 14.222656 169.933594 14.167969 167.359375 14.292969 C 165.695312 14.375 163.3125 14.585938 161.925781 14.777344 C 161.363281 14.855469 160.148438 15.078125 159.230469 15.269531 C 158.3125 15.457031 157.515625 15.613281 157.460938 15.613281 C 157.402344 15.613281 157.28125 15.582031 157.191406 15.542969 C 157.097656 15.503906 156.675781 15.390625 156.253906 15.289062 C 154.21875 14.804688 151.007812 14.453125 147.289062 14.308594 C 144.695312 14.207031 140.707031 14.167969 138.90625 14.230469 M 217.453125 14.46875 C 207.5625 14.710938 199.488281 15.800781 195.207031 17.472656 C 191.570312 18.890625 191.28125 20.640625 194.46875 21.941406 C 197.367188 23.128906 202.535156 23.875 208.929688 24.035156 C 217.867188 24.261719 224.054688 23.457031 226.359375 21.773438 L 226.738281 21.5 L 226.832031 22.066406 C 226.933594 22.695312 227.140625 22.914062 227.960938 23.242188 C 228.597656 23.496094 230.1875 23.835938 231.28125 23.949219 C 232.75 24.105469 235.160156 24.140625 236.109375 24.023438 C 236.363281 23.988281 237.839844 23.976562 242.273438 23.960938 C 245.480469 23.953125 248.136719 23.9375 248.179688 23.929688 C 248.21875 23.921875 248.210938 23.890625 248.160156 23.867188 C 248.078125 23.824219 247.742188 23.816406 246.339844 23.816406 C 244.652344 23.816406 244.609375 23.816406 244.144531 23.726562 C 243.882812 23.675781 243.671875 23.605469 243.671875 23.574219 C 243.679688 23.441406 244.550781 23.1875 249.300781 21.9375 C 252.058594 21.210938 254.996094 20.433594 255.835938 20.214844 C 256.671875 19.992188 257.402344 19.8125 257.457031 19.8125 C 257.605469 19.8125 257.558594 19.792969 263.296875 21.886719 C 266.167969 22.933594 268.472656 23.800781 268.421875 23.820312 C 268.367188 23.835938 267.03125 23.847656 265.25 23.847656 C 262.625 23.847656 262.175781 23.855469 262.175781 23.894531 C 262.175781 23.9375 263.484375 23.941406 272.972656 23.941406 C 282.457031 23.941406 283.765625 23.9375 283.765625 23.894531 C 283.765625 23.855469 283.300781 23.847656 280.539062 23.847656 C 278.15625 23.847656 277.269531 23.839844 277.144531 23.808594 C 277.023438 23.78125 263.625 19.019531 262.359375 18.558594 C 262.1875 18.496094 262.28125 18.464844 263.363281 18.226562 C 264.019531 18.082031 266.984375 17.328125 269.953125 16.546875 C 272.921875 15.765625 275.65625 15.070312 276.027344 15.003906 C 276.902344 14.84375 278.761719 14.671875 279.882812 14.648438 C 280.367188 14.636719 280.972656 14.601562 281.230469 14.570312 L 281.695312 14.515625 L 281.195312 14.464844 C 280.460938 14.390625 273.273438 14.390625 272.539062 14.464844 L 272.039062 14.515625 L 272.550781 14.578125 C 272.828125 14.609375 273.242188 14.636719 273.46875 14.636719 C 273.90625 14.636719 274.675781 14.761719 274.675781 14.835938 C 274.675781 14.941406 273.605469 15.246094 268.546875 16.582031 C 265.578125 17.367188 263.148438 18.019531 263.148438 18.03125 C 263.148438 18.042969 262.980469 18.097656 262.773438 18.152344 C 262.566406 18.207031 262.34375 18.273438 262.285156 18.308594 C 262.019531 18.445312 262.359375 18.558594 254.902344 15.875 C 253.007812 15.195312 251.460938 14.625 251.460938 14.605469 C 251.460938 14.585938 252.65625 14.574219 254.964844 14.574219 C 258.210938 14.574219 258.460938 14.570312 258.410156 14.519531 C 258.359375 14.46875 257.710938 14.464844 247.480469 14.464844 C 236.765625 14.464844 236.605469 14.464844 236.605469 14.527344 C 236.605469 14.585938 236.746094 14.589844 239.875 14.597656 L 243.144531 14.605469 L 243.953125 14.882812 C 244.867188 15.191406 256.925781 19.585938 257.007812 19.640625 C 257.039062 19.65625 256.039062 19.941406 254.792969 20.269531 C 253.546875 20.597656 250.695312 21.351562 248.460938 21.941406 C 242.523438 23.503906 243.089844 23.382812 240.421875 23.710938 C 239.878906 23.777344 238.796875 23.839844 238.796875 23.804688 C 238.796875 23.796875 239.339844 23.683594 240.003906 23.554688 C 241.054688 23.351562 241.882812 23.105469 241.882812 23 C 241.882812 22.933594 241.660156 22.96875 240.113281 23.257812 C 238.515625 23.558594 237.800781 23.636719 236.941406 23.605469 C 236.351562 23.582031 235.664062 23.410156 235.316406 23.195312 C 234.535156 22.714844 234.535156 22.726562 234.464844 18.503906 C 234.402344 14.917969 234.371094 14.523438 234.136719 14.472656 C 233.898438 14.421875 233.363281 14.417969 226.558594 14.421875 C 221.378906 14.421875 218.714844 14.4375 217.453125 14.46875 M 78.734375 14.507812 L 78.734375 14.582031 L 81.378906 14.558594 C 83.605469 14.539062 84.050781 14.542969 84.21875 14.582031 C 84.371094 14.617188 84.40625 15.648438 84.375 19.230469 L 84.335938 23.832031 L 80.722656 23.839844 C 77.5 23.847656 77.109375 23.855469 77.109375 23.902344 C 77.109375 23.949219 77.410156 23.953125 80.300781 23.933594 C 82.058594 23.921875 86.859375 23.910156 90.976562 23.90625 C 95.089844 23.902344 96.929688 23.894531 95.0625 23.886719 C 92.894531 23.882812 91.585938 23.867188 91.449219 23.84375 C 91.273438 23.816406 91.234375 22.984375 91.234375 19.144531 L 91.234375 14.480469 L 86.957031 14.480469 C 84.605469 14.480469 81.792969 14.46875 80.707031 14.457031 C 78.734375 14.4375 78.734375 14.4375 78.734375 14.507812 M 223.863281 14.671875 C 218.871094 14.714844 215.34375 14.929688 211.527344 15.421875 C 207.703125 15.910156 204.371094 16.832031 202.578125 17.894531 C 199.90625 19.476562 200.316406 21.375 203.597656 22.625 C 205.984375 23.53125 208.9375 23.878906 213.503906 23.785156 C 215.53125 23.746094 216.800781 23.683594 218.261719 23.550781 C 220.632812 23.335938 222.109375 23.046875 223.542969 22.511719 C 224.859375 22.023438 225.777344 21.332031 226.320312 20.425781 C 226.542969 20.050781 226.726562 14.632812 226.515625 14.640625 C 226.441406 14.644531 225.246094 14.65625 223.863281 14.671875 M 17.476562 15.113281 C 17.140625 15.207031 17.136719 15.265625 17.46875 15.359375 C 17.832031 15.457031 18.296875 15.484375 20.527344 15.535156 C 22.996094 15.59375 25.253906 15.707031 27.0625 15.863281 C 27.839844 15.933594 28.535156 15.980469 28.605469 15.972656 C 29.078125 15.917969 27 15.597656 24.757812 15.378906 C 22.9375 15.203125 20.820312 15.085938 19.078125 15.058594 C 17.804688 15.039062 17.730469 15.042969 17.476562 15.113281 M 17.859375 15.945312 C 17.070312 16.152344 16.628906 16.214844 15.75 16.238281 C 15.386719 16.246094 15.054688 16.265625 15.011719 16.277344 C 14.90625 16.3125 16.101562 16.515625 16.839844 16.589844 C 18.574219 16.761719 21.203125 16.808594 22.941406 16.703125 C 24.511719 16.609375 24.554688 16.519531 23.050781 16.480469 C 21 16.429688 18.34375 16.25 18.34375 16.160156 C 18.34375 16.136719 18.492188 16.0625 18.667969 15.992188 C 19.378906 15.722656 18.828125 15.691406 17.859375 15.945312 M 12.820312 16.980469 C 11.6875 17.113281 9.8125 17.359375 9.457031 17.421875 C 8.996094 17.503906 8.832031 17.671875 9.09375 17.792969 C 9.300781 17.890625 10.675781 18.117188 11.640625 18.214844 C 12.265625 18.277344 12.335938 18.277344 12.335938 18.222656 C 12.335938 18.199219 11.863281 18.109375 11.285156 18.015625 C 9.390625 17.722656 9.34375 17.628906 10.984375 17.425781 C 11.496094 17.359375 12.089844 17.273438 12.304688 17.226562 C 12.917969 17.101562 13.527344 16.941406 13.453125 16.925781 C 13.414062 16.917969 13.128906 16.941406 12.820312 16.980469 M 13.359375 20.417969 C 13.15625 20.46875 12.496094 21.058594 12.5 21.1875 C 12.5 21.375 12.707031 21.484375 13.328125 21.621094 C 13.671875 21.695312 14.214844 21.78125 14.53125 21.8125 C 15.210938 21.875 18.949219 21.941406 24.105469 21.988281 C 27.609375 22.015625 28.808594 22.054688 30.105469 22.183594 C 32.390625 22.40625 33.925781 22.894531 33.929688 23.398438 C 33.9375 23.785156 34.613281 23.78125 34.828125 23.390625 C 34.964844 23.140625 34.621094 22.789062 33.988281 22.539062 C 33.398438 22.304688 31.929688 22.023438 30.578125 21.886719 L 29.511719 21.777344 L 30.625 21.691406 C 32.589844 21.539062 35.550781 21.136719 35.550781 21.023438 C 35.550781 20.953125 35.269531 20.96875 34.257812 21.085938 C 32.34375 21.3125 29.84375 21.480469 27.410156 21.542969 C 25.414062 21.59375 20.558594 21.617188 18.101562 21.582031 C 15.667969 21.550781 14.46875 21.480469 14.132812 21.359375 C 14.035156 21.324219 13.960938 21.113281 13.960938 20.875 C 13.960938 20.554688 13.90625 20.441406 13.738281 20.414062 C 13.570312 20.386719 13.476562 20.386719 13.359375 20.417969 M 96.945312 24.511719 C 89.542969 24.941406 84.441406 25.511719 82.292969 26.160156 C 81.269531 26.464844 80.953125 26.660156 80.9375 26.988281 C 80.925781 27.246094 80.972656 27.292969 81.414062 27.460938 C 82.320312 27.804688 83.804688 27.949219 86.449219 27.949219 C 89.871094 27.949219 93 27.660156 94.914062 27.171875 C 97.019531 26.628906 98.453125 25.886719 99.339844 24.871094 C 99.746094 24.40625 99.75 24.382812 99.390625 24.386719 C 99.234375 24.386719 98.132812 24.445312 96.945312 24.511719 M 117.25 25.574219 L 116.882812 25.589844 L 116.882812 27.761719 L 118.882812 27.761719 C 121.203125 27.761719 122.5 27.722656 123.53125 27.617188 C 124.402344 27.53125 124.820312 27.40625 124.9375 27.199219 C 125.070312 26.96875 124.535156 26.796875 123.3125 26.671875 C 122.785156 26.621094 122.355469 26.5625 122.359375 26.546875 C 122.359375 26.527344 122.691406 26.480469 123.09375 26.441406 C 124.074219 26.34375 124.421875 26.214844 124.3125 25.992188 C 124.242188 25.851562 124.144531 25.808594 123.707031 25.738281 C 122.898438 25.605469 121.609375 25.550781 119.46875 25.554688 C 118.449219 25.558594 117.449219 25.566406 117.25 25.574219 M 190.300781 25.574219 L 189.933594 25.589844 L 189.933594 27.730469 L 191.070312 27.730469 L 191.070312 27.308594 C 191.070312 27.046875 191.136719 26.875 191.25 26.855469 C 191.355469 26.835938 191.789062 26.828125 192.34375 26.835938 C 193.527344 26.855469 195.441406 26.777344 196.378906 26.667969 C 197.246094 26.570312 197.71875 26.398438 197.722656 26.175781 C 197.734375 25.730469 196.199219 25.546875 192.554688 25.554688 C 191.515625 25.558594 190.5 25.566406 190.300781 25.574219 M 212.054688 25.574219 L 211.6875 25.589844 L 211.6875 27.730469 L 212.824219 27.730469 L 212.824219 27.277344 C 212.824219 26.96875 212.886719 26.816406 213.019531 26.789062 C 213.257812 26.742188 214.953125 26.738281 215.769531 26.78125 C 216.78125 26.835938 217.445312 27.015625 218.039062 27.394531 L 218.5625 27.730469 L 219.199219 27.730469 C 219.746094 27.730469 219.824219 27.71875 219.726562 27.671875 C 219.664062 27.644531 219.429688 27.5 219.207031 27.351562 C 218.679688 27.003906 218.386719 26.898438 217.695312 26.808594 C 217.382812 26.765625 217.136719 26.71875 217.144531 26.703125 C 217.15625 26.6875 217.503906 26.636719 217.921875 26.597656 C 218.953125 26.492188 219.367188 26.371094 219.441406 26.152344 C 219.582031 25.71875 218.152344 25.550781 214.367188 25.558594 C 213.296875 25.558594 212.253906 25.566406 212.054688 25.574219 M 234.902344 25.59375 C 232.296875 25.734375 230.933594 26.066406 230.734375 26.609375 C 230.59375 26.988281 231.445312 27.378906 232.792969 27.550781 C 234.003906 27.707031 235.300781 27.769531 237.011719 27.75 C 239.488281 27.726562 241.058594 27.574219 241.980469 27.269531 C 242.871094 26.972656 243.078125 26.609375 242.546875 26.277344 C 241.96875 25.917969 240.871094 25.710938 238.972656 25.601562 C 237.9375 25.542969 235.9375 25.539062 234.902344 25.59375 M 259.617188 25.574219 L 259.253906 25.589844 L 259.253906 27.730469 L 260.390625 27.730469 L 260.390625 27.277344 C 260.390625 26.96875 260.449219 26.816406 260.585938 26.789062 C 260.820312 26.742188 262.519531 26.738281 263.335938 26.78125 C 264.347656 26.835938 265.011719 27.015625 265.605469 27.394531 L 266.125 27.730469 L 266.765625 27.730469 C 267.308594 27.730469 267.386719 27.71875 267.289062 27.671875 C 267.226562 27.644531 266.992188 27.5 266.773438 27.351562 C 266.246094 27.003906 265.949219 26.898438 265.257812 26.808594 C 264.945312 26.765625 264.699219 26.71875 264.710938 26.703125 C 264.71875 26.6875 265.070312 26.636719 265.488281 26.597656 C 266.515625 26.492188 266.933594 26.371094 267.003906 26.152344 C 267.148438 25.71875 265.714844 25.550781 261.933594 25.558594 C 260.859375 25.558594 259.820312 25.566406 259.617188 25.574219 M 128.085938 26.65625 L 128.085938 27.730469 L 131.65625 27.730469 C 135.117188 27.730469 135.226562 27.726562 135.226562 27.664062 C 135.226562 27.605469 135.117188 27.601562 132.417969 27.601562 C 130.449219 27.601562 129.550781 27.589844 129.414062 27.566406 C 129.285156 27.539062 129.222656 27.394531 129.222656 27.128906 C 129.222656 26.863281 129.285156 26.71875 129.414062 26.695312 C 129.550781 26.667969 130.378906 26.65625 132.09375 26.65625 C 134.46875 26.65625 134.578125 26.652344 134.578125 26.59375 C 134.578125 26.53125 134.46875 26.53125 132.09375 26.53125 C 130.378906 26.53125 129.550781 26.519531 129.414062 26.492188 C 129.289062 26.46875 129.222656 26.335938 129.222656 26.121094 C 129.222656 25.902344 129.289062 25.773438 129.414062 25.746094 C 129.550781 25.722656 130.414062 25.710938 132.257812 25.710938 C 134.792969 25.710938 134.902344 25.707031 134.902344 25.648438 C 134.902344 25.585938 134.792969 25.582031 131.492188 25.582031 L 128.085938 25.582031 L 128.085938 26.65625 M 141.386719 25.667969 C 141.300781 25.710938 140.316406 26.1875 139.199219 26.722656 C 138.085938 27.257812 137.175781 27.703125 137.175781 27.710938 C 137.175781 27.722656 137.453125 27.730469 137.789062 27.730469 L 138.402344 27.730469 L 138.945312 27.445312 C 139.8125 26.988281 139.695312 27.003906 142.441406 27.003906 C 144.371094 27.003906 144.804688 27.011719 144.988281 27.054688 C 145.109375 27.082031 145.503906 27.242188 145.863281 27.410156 L 146.511719 27.714844 L 147.191406 27.722656 L 147.875 27.730469 L 145.648438 26.660156 L 143.425781 25.585938 L 142.488281 25.585938 C 141.625 25.582031 141.539062 25.589844 141.386719 25.667969 M 150.164062 26.355469 C 150.164062 27.054688 150.191406 27.144531 150.496094 27.300781 C 151.101562 27.613281 152.472656 27.761719 154.824219 27.761719 C 157.105469 27.761719 158.625 27.589844 159.253906 27.265625 C 159.542969 27.113281 159.578125 27.019531 159.578125 26.339844 L 159.578125 25.582031 L 158.460938 25.582031 L 158.410156 26.347656 C 158.363281 27.101562 158.351562 27.117188 157.945312 27.273438 C 157.695312 27.367188 157.257812 27.464844 156.835938 27.523438 C 156.207031 27.609375 156.019531 27.617188 154.871094 27.617188 C 153.71875 27.617188 153.535156 27.609375 152.90625 27.523438 C 152.484375 27.464844 152.046875 27.367188 151.792969 27.273438 C 151.386719 27.117188 151.378906 27.101562 151.328125 26.347656 L 151.277344 25.582031 L 150.164062 25.582031 L 150.164062 26.355469 M 161.851562 25.648438 C 161.851562 25.707031 161.957031 25.710938 163.765625 25.710938 C 165.039062 25.710938 165.746094 25.722656 165.875 25.746094 C 166.019531 25.777344 166.070312 26.042969 166.070312 26.757812 L 166.070312 27.730469 L 167.207031 27.730469 L 167.207031 26.757812 C 167.207031 26.042969 167.257812 25.777344 167.402344 25.746094 C 167.53125 25.722656 168.238281 25.710938 169.511719 25.710938 C 171.320312 25.710938 171.429688 25.707031 171.429688 25.648438 C 171.429688 25.585938 171.320312 25.582031 166.640625 25.582031 C 161.957031 25.582031 161.851562 25.585938 161.851562 25.648438 M 173.320312 25.621094 C 173.386719 25.644531 174.339844 25.929688 175.4375 26.253906 L 177.433594 26.847656 L 177.433594 27.730469 L 178.570312 27.730469 L 178.574219 27.277344 L 178.578125 26.828125 L 180.617188 26.261719 C 183.261719 25.523438 183.121094 25.582031 182.265625 25.582031 L 181.566406 25.582031 L 180.035156 26.082031 C 179.195312 26.355469 178.40625 26.597656 178.28125 26.625 C 178 26.683594 178.019531 26.691406 176.125 26.066406 L 174.664062 25.582031 L 173.929688 25.582031 C 173.382812 25.582031 173.226562 25.59375 173.320312 25.621094 M 202.265625 25.667969 C 202.175781 25.710938 201.191406 26.1875 200.078125 26.722656 C 198.964844 27.257812 198.050781 27.703125 198.050781 27.710938 C 198.050781 27.722656 198.328125 27.730469 198.664062 27.730469 L 199.277344 27.730469 L 199.820312 27.445312 C 200.691406 26.988281 200.570312 27.003906 203.320312 27.003906 C 205.25 27.003906 205.679688 27.011719 205.863281 27.054688 C 205.988281 27.082031 206.378906 27.242188 206.738281 27.410156 L 207.390625 27.714844 L 208.75 27.730469 L 206.527344 26.660156 L 204.300781 25.585938 L 203.363281 25.585938 C 202.5 25.582031 202.414062 25.589844 202.265625 25.667969 M 222.726562 26.65625 L 222.726562 27.730469 L 226.296875 27.730469 C 229.761719 27.730469 229.871094 27.726562 229.871094 27.664062 C 229.871094 27.605469 229.761719 27.601562 227.0625 27.601562 C 225.09375 27.601562 224.195312 27.589844 224.058594 27.566406 C 223.914062 27.535156 223.863281 27.269531 223.863281 26.554688 L 223.863281 25.582031 L 222.726562 25.582031 L 222.726562 26.65625 M 245.941406 26.355469 C 245.941406 27.054688 245.972656 27.144531 246.273438 27.300781 C 246.878906 27.613281 248.25 27.761719 250.601562 27.761719 C 252.886719 27.761719 254.40625 27.589844 255.03125 27.265625 C 255.324219 27.113281 255.355469 27.019531 255.355469 26.339844 L 255.355469 25.582031 L 254.242188 25.582031 L 254.191406 26.347656 C 254.140625 27.101562 254.132812 27.117188 253.726562 27.273438 C 253.472656 27.367188 253.035156 27.464844 252.613281 27.523438 C 251.984375 27.609375 251.800781 27.617188 250.648438 27.617188 C 249.5 27.617188 249.3125 27.609375 248.683594 27.523438 C 248.261719 27.464844 247.824219 27.367188 247.574219 27.273438 C 247.167969 27.117188 247.15625 27.101562 247.109375 26.347656 L 247.058594 25.582031 L 245.941406 25.582031 L 245.941406 26.355469 M 118.546875 25.730469 C 118.402344 25.742188 118.34375 25.851562 118.34375 26.109375 L 118.34375 26.472656 L 119.851562 26.460938 C 121.042969 26.453125 121.480469 26.433594 121.933594 26.378906 C 123.242188 26.222656 123.210938 25.917969 121.875 25.785156 C 121.367188 25.734375 118.949219 25.691406 118.546875 25.730469 M 191.917969 25.730469 L 191.386719 25.746094 L 191.433594 26.191406 L 191.476562 26.640625 L 192.9375 26.640625 C 194.113281 26.640625 194.507812 26.628906 194.96875 26.574219 C 196.660156 26.382812 196.707031 25.960938 195.050781 25.804688 C 194.375 25.742188 192.84375 25.707031 191.917969 25.730469 M 213.515625 25.730469 C 213.15625 25.746094 213.148438 25.753906 213.148438 26.171875 L 213.148438 26.601562 L 214.734375 26.589844 C 216.039062 26.578125 216.429688 26.5625 216.929688 26.503906 C 218.578125 26.304688 218.320312 25.890625 216.472656 25.765625 C 215.71875 25.714844 214.359375 25.699219 213.515625 25.730469 M 261.078125 25.730469 C 260.722656 25.746094 260.714844 25.753906 260.714844 26.171875 L 260.714844 26.601562 L 262.300781 26.589844 C 263.605469 26.578125 263.996094 26.5625 264.496094 26.503906 C 266.140625 26.304688 265.882812 25.890625 264.039062 25.765625 C 263.285156 25.714844 261.925781 25.699219 261.078125 25.730469 M 234.902344 25.808594 C 233.949219 25.890625 233.347656 26.003906 232.824219 26.199219 C 232.453125 26.335938 232.398438 26.394531 232.390625 26.65625 C 232.386719 26.921875 232.4375 26.972656 232.816406 27.113281 C 233.675781 27.425781 234.90625 27.570312 236.78125 27.570312 C 237.714844 27.570312 238.09375 27.554688 238.808594 27.484375 C 240.441406 27.324219 241.347656 26.972656 241.195312 26.5625 C 241.007812 26.058594 239.296875 25.742188 236.769531 25.742188 C 235.972656 25.742188 235.414062 25.761719 234.902344 25.808594 M 142.316406 25.824219 C 142.257812 25.835938 142.207031 25.867188 142.207031 25.890625 C 142.207031 25.917969 141.804688 26.136719 141.316406 26.378906 C 140.824219 26.621094 140.421875 26.824219 140.421875 26.832031 C 140.421875 26.839844 141.335938 26.84375 142.453125 26.84375 C 143.566406 26.84375 144.480469 26.839844 144.480469 26.832031 C 144.480469 26.824219 144.160156 26.664062 143.769531 26.476562 C 143.378906 26.289062 142.933594 26.0625 142.78125 25.96875 C 142.488281 25.792969 142.484375 25.792969 142.316406 25.824219 M 203.191406 25.824219 C 203.132812 25.835938 203.085938 25.867188 203.085938 25.890625 C 203.085938 25.917969 202.683594 26.136719 202.191406 26.378906 C 201.699219 26.621094 201.296875 26.824219 201.296875 26.832031 C 201.296875 26.839844 202.210938 26.84375 203.328125 26.84375 C 204.445312 26.84375 205.355469 26.839844 205.355469 26.832031 C 205.355469 26.824219 205.039062 26.664062 204.644531 26.476562 C 204.253906 26.289062 203.8125 26.0625 203.660156 25.96875 C 203.367188 25.792969 203.359375 25.792969 203.191406 25.824219 M 118.378906 27.136719 L 118.425781 27.585938 L 119.375 27.597656 C 120.925781 27.613281 122.058594 27.550781 122.765625 27.414062 C 123.292969 27.308594 123.375 27.273438 123.375 27.148438 C 123.375 26.855469 121.980469 26.6875 119.527344 26.6875 L 118.335938 26.6875 L 118.378906 27.136719 "/>
</g>
</svg>
